<svg  xmlns="http://www.w3.org/2000/svg" version="1.1"  node-id="1" width="72" height="72" viewBox="500 500 10598 7897">

 <g>
  <title>Layer 1</title>
  <path id="svg_1" target-y="7710.9" target-x="0" target-width="11776" target-height="5.8999" node-id="119" fill-rule="nonzero" fill="#ebebeb" d="m11776,7710.9l-11776,0l0,5.9l11776,0l0,-5.9z"/>
  <path id="svg_2" target-y="7935.1" target-x="8455.2" target-width="2140.7998" target-height="5.8999" node-id="121" fill-rule="nonzero" fill="#ebebeb" d="m10596,7935.1l-2140.8,0l0,5.9l2140.8,0l0,-5.9z"/>
  <path id="svg_3" target-y="7871.3" target-x="7214.7" target-width="586.1997" target-height="5.90039" node-id="123" fill-rule="nonzero" fill="#ebebeb" d="m7800.9,7871.3l-586.2,0l0,5.9l586.2,0l0,-5.9z"/>
  <path id="svg_4" target-y="8153.9" target-x="8231.9" target-width="908.8994" target-height="5.8999" node-id="125" fill-rule="nonzero" fill="#ebebeb" d="m9140.8,8153.9l-908.9,0l0,5.9l908.9,0l0,-5.9z"/>
  <path id="svg_5" target-y="8114.4" target-x="1235.5" target-width="533.30005" target-height="5.8999" node-id="127" fill-rule="nonzero" fill="#ebebeb" d="m1768.8,8114.4l-533.3,0l0,5.9l533.3,0l0,-5.9z"/>
  <path id="svg_6" target-y="8114.4" target-x="1978.4" target-width="633.2999" target-height="5.8999" node-id="129" fill-rule="nonzero" fill="#ebebeb" d="m2611.7,8114.4l-633.3,0l0,5.9l633.3,0l0,-5.9z"/>
  <path id="svg_7" target-y="8015" target-x="4199.6" target-width="1103.1001" target-height="5.8999" node-id="131" fill-rule="nonzero" fill="#ebebeb" d="m5302.7,8015l-1103.1,0l0,5.9l1103.1,0l0,-5.9z"/>
  <path id="svg_8" target-y="0" target-x="899.9" target-width="4816.4" target-height="6660.5" node-id="133" fill-rule="nonzero" fill="#ebebeb" d="m5581.8,6660.5l-4547.6,0l-9,-0.3l-8.7,-0.9l-8.7,-1.4l-8.5,-2.1l-8.4,-2.5l-8.1,-3.1l-8,-3.6l-7.7,-4.1l-7.4,-4.7l-7.1,-5.1l-6.9,-5.6l-6.5,-6.1l-6.1,-6.5l-5.5,-6.8l-5.1,-7.1l-4.6,-7.5l-4.2,-7.7l-3.6,-8l-3,-8.1l-2.6,-8.4l-2,-8.5l-1.4,-8.7l-0.9,-8.8l-0.3,-8.9l0,-6392.7l0.4,-8.9l0.9,-8.7l1.5,-8.6l2.1,-8.4l2.6,-8.4l3.1,-8l3.6,-7.9l4.1,-7.7l4.7,-7.4l5.1,-7l5.6,-6.8l6,-6.4l6.5,-6.1l6.8,-5.5l7.1,-5.1l7.4,-4.6l7.7,-4l7.9,-3.6l8.2,-3.1l8.3,-2.5l8.5,-2l8.6,-1.4l8.7,-0.9l8.9,-0.3l4547.6,0l9,0.3l8.7,0.9l8.7,1.4l8.5,2l8.4,2.6l8.2,3l7.9,3.6l7.8,4.2l7.4,4.6l7.2,5.1l6.8,5.6l6.5,6.1l6.1,6.5l5.6,6.8l5.1,7.2l4.6,7.4l4.2,7.8l3.6,7.9l3,8.2l2.6,8.4l2,8.5l1.4,8.7l0.9,8.8l0.3,8.9l0,6391.5l-0.3,9l-0.9,8.7l-1.4,8.7l-2,8.5l-5.6,16.6l-7.8,15.7l-4.6,7.4l-5.1,7.2l-5.6,6.8l-6.1,6.5l-6.5,6.1l-6.8,5.6l-7.2,5.1l-7.4,4.6l-7.8,4.2l-7.9,3.6l-8.2,3l-8.4,2.6l-8.5,2l-17.4,2.3l-9,0.3zm-4547.6,-6655.8l-8.6,0.3l-8.3,0.9l-8.3,1.3l-8.2,2l-8,2.4l-7.8,3l-7.6,3.4l-7.3,4l-7.2,4.4l-6.8,4.9l-6.5,5.3l-6.2,5.9l-5.8,6.2l-5.4,6.5l-4.8,6.8l-4.4,7.2l-4,7.4l-3.4,7.5l-3,7.8l-2.4,8.1l-1.9,8.1l-1.4,8.3l-0.8,8.4l-0.3,8.5l0,6392.7l0.3,8.6l0.8,8.3l1.4,8.3l1.9,8.2l2.4,8l3,7.8l3.4,7.6l4,7.4l4.4,7.1l4.8,6.8l5.4,6.5l5.8,6.3l6.2,5.8l6.5,5.4l6.8,4.8l7.2,4.5l7.3,3.9l7.6,3.5l7.8,2.9l8,2.5l8.2,1.9l8.3,1.4l8.3,0.8l8.6,0.3l4547.6,0l8.6,-0.3l8.3,-0.8l8.3,-1.4l8.2,-1.9l8,-2.5l7.8,-2.9l15,-7.4l7.1,-4.5l13.3,-10.2l6.3,-5.8l5.8,-6.3l5.4,-6.5l4.8,-6.8l4.5,-7.1l3.9,-7.4l3.5,-7.6l2.9,-7.8l2.5,-8l1.9,-8.2l2.2,-16.6l0.3,-8.6l0,-6392.7l-0.3,-8.5l-0.8,-8.4l-1.4,-8.3l-1.9,-8.1l-2.5,-8.1l-2.9,-7.8l-3.5,-7.6l-3.9,-7.4l-4.5,-7.1l-4.8,-6.8l-5.4,-6.5l-5.8,-6.3l-6.3,-5.8l-6.5,-5.3l-6.8,-4.9l-7.1,-4.4l-7.4,-4l-7.6,-3.4l-7.8,-3l-8,-2.4l-8.2,-2l-8.3,-1.3l-8.3,-0.9l-8.6,-0.3l-4547.6,0z"/>
  <path id="svg_9" target-y="0" target-x="5994" target-width="4816.4004" target-height="6660.5" node-id="135" fill-rule="nonzero" fill="#ebebeb" d="m10676.4,6660.5l-4547.9,0l-17.7,-1.2l-8.7,-1.4l-8.5,-2.1l-8.4,-2.5l-8.2,-3.1l-7.9,-3.6l-7.7,-4.1l-7.5,-4.7l-7.1,-5.1l-6.8,-5.6l-6.6,-6l-6.1,-6.6l-5.5,-6.8l-5.2,-7.1l-4.6,-7.5l-4.1,-7.7l-6.7,-16.1l-2.6,-8.4l-2,-8.5l-1.4,-8.7l-0.9,-8.8l-0.3,-8.9l0,-6392.7l0.4,-8.9l0.9,-8.7l1.5,-8.6l2.1,-8.4l2.6,-8.4l3.1,-8.1l3.7,-7.8l4.1,-7.7l4.7,-7.4l5.1,-7l5.6,-6.8l6.1,-6.5l6.5,-6l6.8,-5.5l7.1,-5.1l7.4,-4.6l7.7,-4l7.9,-3.6l8.1,-3.1l8.4,-2.5l8.5,-2l8.6,-1.4l8.7,-0.9l8.9,-0.3l4547.9,0l8.8,0.3l8.7,0.9l8.6,1.5l8.5,2l8.3,2.5l8.1,3.1l7.9,3.5l7.6,4.1l7.4,4.6l7.1,5.1l6.8,5.5l6.5,6l6.1,6.5l5.6,6.7l5.1,7.1l4.6,7.4l4.1,7.6l3.6,7.9l3.2,8.1l2.6,8.3l2,8.5l1.5,8.5l0.9,8.7l0.4,8.9l0,6392.7l-0.3,8.9l-0.9,8.8l-1.4,8.6l-2,8.5l-2.5,8.4l-3.1,8.2l-3.6,7.9l-4.1,7.7l-4.6,7.5l-5.1,7.1l-5.6,6.8l-6.1,6.6l-6.5,6.1l-6.8,5.5l-7.1,5.2l-7.4,4.6l-7.7,4.1l-8,3.6l-16.4,5.7l-8.6,2l-17.3,2.4l-8.9,0.3zm-4547.9,-6655.8l-8.6,0.3l-8.4,0.9l-8.2,1.3l-8.2,2l-8,2.4l-7.8,3l-7.6,3.4l-7.4,4l-7.1,4.4l-6.8,4.9l-6.6,5.3l-6.2,5.8l-5.8,6.3l-5.4,6.5l-4.9,6.8l-4.4,7.1l-3.9,7.4l-3.5,7.6l-2.9,7.8l-2.5,8.1l-1.9,8.1l-1.4,8.3l-0.8,8.4l-0.3,8.5l0,6392.7l0.3,8.6l2.2,16.6l1.9,8.2l2.5,8l2.9,7.8l3.5,7.6l3.9,7.4l4.4,7.1l10.3,13.3l5.8,6.3l6.2,5.8l6.6,5.4l6.8,4.8l7.1,4.5l7.4,3.9l7.6,3.5l7.8,2.9l8,2.5l8.2,1.9l8.2,1.4l8.4,0.8l8.6,0.3l4547.9,0l8.5,-0.3l16.6,-2.2l8.2,-1.9l15.8,-5.4l7.6,-3.5l7.4,-3.9l7.1,-4.5l13.4,-10.2l6.2,-5.8l5.8,-6.3l10.3,-13.3l4.4,-7.1l3.9,-7.4l3.5,-7.6l5.4,-15.8l1.9,-8.2l1.4,-8.3l0.9,-8.3l0.3,-8.6l0,-6392.7l-0.3,-8.5l-0.9,-8.4l-1.4,-8.3l-1.9,-8.1l-2.4,-8.1l-3,-7.8l-3.5,-7.6l-3.9,-7.4l-4.4,-7.1l-4.9,-6.8l-5.4,-6.5l-5.8,-6.3l-6.2,-5.8l-6.6,-5.3l-6.8,-4.9l-7.1,-4.4l-7.4,-4l-7.6,-3.4l-7.8,-3l-8,-2.4l-8.2,-2l-8.2,-1.3l-8.4,-0.9l-8.5,-0.3l-4547.9,0z"/>
  <path id="svg_10" target-y="1483.3" target-x="1235.3" target-width="2815.9" target-height="6227.4004" node-id="137" fill-rule="nonzero" fill="#f0f0f0" d="m1235.3,7710.7l2815.9,0l0,-6227.4l-2815.9,0l0,6227.4z"/>
  <path id="svg_11" target-y="1483.3" target-x="1235.5" target-width="2682.4" target-height="6227.4004" node-id="139" fill-rule="nonzero" fill="#f5f5f5" d="m1235.5,7710.7l2682.4,0l0,-6227.4l-2682.4,0l0,6227.4z"/>
  <path id="svg_12" target-y="1624.9" target-x="1376.9" target-width="2399.7002" target-height="5944.7" node-id="141" fill-rule="nonzero" fill="#f0f0f0" d="m3776.6,7569.6l0,-5944.7l-2399.7,0l0,5944.7l2399.7,0z"/>
  <path id="svg_13" target-y="4302" target-x="1600.1" target-width="615.0001" target-height="125.79981" node-id="143" fill-rule="nonzero" fill="#ffffff" d="m2152.2,4427.8l-489.2,0l-5.5,-0.3l-5.5,-0.7l-5.3,-1.2l-5.2,-1.7l-5,-2.1l-4.8,-2.5l-4.7,-2.9l-4.3,-3.4l-4.1,-3.7l-3.7,-4.1l-3.4,-4.3l-2.9,-4.7l-2.5,-4.8l-2.1,-5l-1.7,-5.2l-1.2,-5.3l-0.7,-5.5l-0.3,-5.5l0.3,-5.6l0.7,-5.4l1.2,-5.3l1.7,-5.2l2.1,-5l2.5,-4.9l2.9,-4.6l3.4,-4.3l3.7,-4.1l4.1,-3.8l4.3,-3.3l4.7,-2.9l4.8,-2.5l5,-2.1l5.2,-1.7l5.3,-1.2l5.5,-0.7l5.5,-0.3l489.2,0l5.5,0.3l10.8,1.9l5.2,1.7l5,2.1l4.8,2.5l4.6,2.9l4.4,3.3l4.1,3.8l7.1,8.4l2.9,4.6l2.5,4.9l2.1,5l1.7,5.2l1.2,5.3l0.7,5.4l0.3,5.6l-0.3,5.5l-1.9,10.8l-1.7,5.2l-2.1,5l-2.5,4.8l-2.9,4.7l-3.4,4.3l-3.7,4.1l-4.1,3.7l-4.4,3.4l-4.6,2.9l-4.8,2.5l-5,2.1l-5.2,1.7l-5.3,1.2l-5.5,0.7l-5.5,0.3z"/>
  <path id="svg_14" target-y="1624.9" target-x="1376.9" target-width="36.69995" target-height="5944.7" node-id="145" fill-rule="nonzero" fill="#f0f0f0" d="m1413.6,7569.6l0,-5944.7l-36.7,0l0,5944.7l36.7,0z"/>
  <path id="svg_15" target-y="5774.5" target-x="5370.6" target-width="419.1997" target-height="1818.2002" node-id="147" fill-rule="nonzero" fill="#f0f0f0" d="m5370.6,7592.7l419.2,0l0,-1818.2l-419.2,0l0,1818.2z"/>
  <path id="svg_16" target-y="7592.9" target-x="3641.9" target-width="2067.3003" target-height="115.20019" node-id="149" fill-rule="nonzero" fill="#f0f0f0" d="m3641.9,7708.1l2067.3,0l0,-115.2l-2067.3,0l0,115.2z"/>
  <path id="svg_17" target-y="5774.7" target-x="3561.3" target-width="1809.3" target-height="1818.1997" node-id="151" fill-rule="nonzero" fill="#f5f5f5" d="m5370.6,5774.7l-1809.3,0l0,1818.2l1809.3,0l0,-1818.2z"/>
  <path id="svg_18" target-y="5998.5" target-x="3725.9" target-width="1479.6001" target-height="596.2998" node-id="153" fill-rule="nonzero" fill="#f0f0f0" d="m5205.5,5998.5l-1479.6,0l0,596.3l1479.6,0l0,-596.3z"/>
  <path id="svg_19" target-y="6772.6" target-x="3725.9" target-width="1479.6001" target-height="596.3999" node-id="155" fill-rule="nonzero" fill="#f0f0f0" d="m5205.5,6772.6l-1479.6,0l0,596.4l1479.6,0l0,-596.4z"/>
  <path id="svg_20" target-y="5966.9" target-x="4258.9" target-width="413.8003" target-height="81.70019" node-id="157" fill-rule="nonzero" fill="#f5f5f5" d="m4299.7,6048.6l332.3,0l4,-0.2l4,-0.6l3.8,-1l3.7,-1.3l7,-3.8l6.2,-5.1l5.1,-6.2l2,-3.4l1.8,-3.6l1.3,-3.7l1,-3.8l0.6,-4l0.2,-4l-0.2,-4.1l-0.6,-3.9l-0.9,-3.9l-1.4,-3.8l-1.7,-3.6l-4.4,-6.6l-2.7,-3l-3,-2.8l-3.2,-2.3l-3.4,-2.1l-3.6,-1.7l-7.6,-2.4l-8,-0.8l-332.3,0l-4.1,0.2l-4,0.6l-3.8,1l-3.8,1.4l-3.6,1.7l-3.4,2.1l-6.2,5.1l-2.7,3l-2.4,3.2l-2,3.4l-1.7,3.6l-1.3,3.8l-1,3.9l-0.8,8l0.2,4l0.6,4l1,3.8l1.4,3.7l1.7,3.6l4.4,6.6l2.7,3l3,2.7l3.2,2.4l3.4,2.1l3.6,1.7l7.6,2.3l8,0.8z"/>
  <path id="svg_21" target-y="6742.2" target-x="4258.9" target-width="413.8003" target-height="80.79981" node-id="159" fill-rule="nonzero" fill="#f5f5f5" d="m4299.7,6823l332.3,0l7.9,-0.8l7.5,-2.3l6.9,-3.6l3.2,-2.4l3,-2.6l5.1,-6.1l3.8,-6.9l2.4,-7.4l0.6,-3.9l0.3,-4l-0.2,-4.1l-1.6,-7.7l-1.3,-3.8l-1.8,-3.6l-2,-3.4l-2.4,-3.2l-2.7,-3l-6.2,-5.1l-3.4,-2l-3.6,-1.7l-7.5,-2.3l-4,-0.6l-4,-0.3l-332.3,0l-8,0.9l-3.9,0.9l-3.7,1.4l-7,3.7l-3.2,2.4l-3,2.7l-2.7,3l-2.4,3.2l-2,3.4l-1.7,3.6l-2.4,7.6l-0.6,3.9l-0.2,4.1l0.3,4l1.7,7.6l3.1,7.3l4.4,6.4l2.8,3l6.1,5l7,3.6l7.5,2.3l3.8,0.6l4.1,0.2z"/>
  <path id="svg_22" target-y="4732.1" target-x="4572.6" target-width="62.19971" target-height="1006.7998" node-id="161" fill-rule="nonzero" fill="#f5f5f5" d="m4603.7,5738.9l-4.1,-0.3l-3.9,-0.8l-3.9,-1.3l-6.9,-4l-3.1,-2.8l-2.7,-3.1l-2.3,-3.3l-1.8,-3.6l-1.3,-3.8l-0.8,-4l-0.3,-4.1l0,-944.6l0.3,-4.2l0.8,-3.9l1.3,-3.8l4,-7l2.7,-3.1l3.1,-2.7l3.4,-2.3l3.6,-1.8l3.8,-1.3l4,-0.8l4.1,-0.2l4.1,0.3l4,0.8l3.8,1.3l3.6,1.8l3.3,2.2l3.1,2.7l2.7,3.1l2.3,3.4l1.8,3.6l1.3,3.8l0.8,4l0.3,4.1l0,944.6l-0.3,4.1l-0.8,4l-1.3,3.8l-1.8,3.6l-2.3,3.3l-2.7,3.1l-3.1,2.8l-6.9,4l-3.8,1.3l-4,0.8l-4.1,0.3z"/>
  <path id="svg_23" target-y="5702.2" target-x="4312.8" target-width="581.8003" target-height="73.19971" node-id="163" fill-rule="nonzero" fill="#f0f0f0" d="m4894.6,5702.2l-581.8,0l0,73.2l581.8,0l0,-73.2z"/>
  <path id="svg_24" target-y="4671.3" target-x="4749.3" target-width="31.1001" target-height="502.4004" node-id="165" fill-rule="nonzero" fill="#f0f0f0" d="m4764.8,5173.7l-3,-0.3l-2.9,-0.9l-5,-3.3l-1.9,-2.3l-1.5,-2.7l-0.9,-2.8l-0.3,-3l0,-471.5l0.3,-3.1l0.9,-2.9l1.4,-2.6l2,-2.4l2.3,-1.9l2.7,-1.5l2.9,-0.9l3,-0.3l5.9,1.2l2.7,1.5l2.3,1.9l2,2.4l1.4,2.6l0.9,2.9l0.4,3.1l0,471l-0.3,3.1l-0.9,2.9l-3.3,5.1l-2.4,2l-2.7,1.5l-2.9,0.9l-3.1,0.3z"/>
  <path id="svg_25" target-y="4404.2" target-x="4151.3" target-width="904.6001" target-height="445.1997" node-id="167" fill-rule="nonzero" fill="#f0f0f0" d="m4151.3,4849.4l0.8,-13.6l1.1,-11.1l3.8,-27.9l2.9,-16.5l4,-19.2l3,-13l3.6,-13.8l4.2,-14.7l4.6,-14.6l5.3,-15.1l5.9,-15.7l6.5,-15.5l7.2,-15.8l8,-16.1l6.3,-11.8l6.9,-11.9l7.3,-11.8l7.8,-11.9l8.2,-11.5l8.7,-11.4l9.3,-11.3l9.9,-11.2l10.2,-10.7l10.8,-10.5l11.5,-10.3l12.1,-10l20.2,-15l10.8,-7.1l11.3,-6.9l11.8,-6.7l11.8,-6.2l12.4,-5.9l12.9,-5.6l13.4,-5.2l14,-5l13.9,-4.4l14.5,-4l15.2,-3.7l15.8,-3.2l16.5,-2.9l16.1,-2.2l16.8,-1.8l17.6,-1.4l18.4,-0.8l19.1,-0.3l19.2,0.3l18.3,0.8l17.6,1.4l16.8,1.8l16.2,2.2l16.5,2.8l15.8,3.3l15.1,3.6l14.5,4.1l13.9,4.4l14,4.9l13.5,5.3l12.8,5.6l12.4,5.9l11.8,6.1l23,13.6l10.8,7.1l10.4,7.4l9.9,7.6l12.1,10l11.4,10.2l10.9,10.5l10.2,10.8l9.8,11.1l9.3,11.3l8.7,11.4l8.2,11.5l7.8,11.9l14.2,23.6l6.3,11.9l8,16l7.2,15.8l6.5,15.5l5.9,15.7l5.2,15.1l4.6,14.5l7.8,28.6l3.1,12.9l3.9,19.2l2.9,16.5l3.8,27.8l1.9,24.7l-904.6,0.5z"/>
  <path id="svg_26" target-y="5478.2" target-x="6120.5" target-width="2387.7998" target-height="2166.7998" node-id="169" fill-rule="nonzero" fill="#f0f0f0" d="m7967.9,5478.2l18.9,0.1l9.5,0.4l9.5,0.7l16.3,1.4l16.2,1.9l16,2.4l31.7,6.1l15.7,3.8l15.6,4.3l30.6,9.9l15,5.5l14.9,6.1l14.7,6.5l14.6,6.9l28.3,15.1l27.4,16.8l13.4,9l13.1,9.4l12.9,9.8l12.5,10.2l12.3,10.6l12,11l11.7,11.4l11.4,11.8l21.5,24.4l10.1,12.5l9.7,12.9l9.4,13.2l8.9,13.4l16.7,27.5l14.9,28.4l6.9,14.6l6.4,14.7l6,14.9l5.5,15.1l9.7,30.7l4.2,15.6l7,31.5l2.7,15.9l2.3,16.1l1.9,16.1l1.3,16.4l0.8,17.7l0.3,17.8l-0.3,17.7l-0.9,17.7l-1.5,17.7l-2,17.7l-2.6,17.5l-3.2,17.4l-3.7,17.4l-13.9,55.7l-9,38.5l-8.4,38.6l-7.8,38.7l-7.3,38.8l-6.7,38.9l-6.2,39.1l-5.6,39l-5,39.2l-4.4,39.2l-3.9,39.3l-3.3,39.3l-2.7,39.4l-2.1,39.5l-1.6,39.4l-1,39.5l-0.4,39.6l0.2,730.6l-0.8,11.9l-0.9,5.9l-1.4,5.8l-1.7,5.6l-2.1,5.7l-2.4,5.4l-2.9,5.2l-3.1,5.1l-3.5,4.8l-3.7,4.6l-4.1,4.4l-4.4,4.1l-4.6,3.8l-9.9,6.5l-5.3,2.8l-5.4,2.5l-5.7,2.1l-5.7,1.7l-5.8,1.3l-5.8,1l-11.9,0.7l-2193.4,0l0,-2166.8l1847.4,0z"/>
  <path id="svg_27" target-y="5480.1" target-x="5579.9" target-width="1080.6001" target-height="2165.6" node-id="171" fill-rule="nonzero" fill="#f5f5f5" d="m5579.9,6018.7l0.3,-15.4l0.7,-15.3l1.1,-15.2l1.6,-15.3l2,-15.1l2.4,-15.1l2.9,-15l3.2,-14.9l3.7,-14.9l8.6,-29.3l5,-14.5l5.3,-14.3l5.8,-14.2l6.2,-14.1l6.6,-13.9l6.9,-13.7l7.3,-13.4l7.7,-13.2l8.1,-13l8.4,-12.8l17.9,-24.7l19.3,-23.7l10.2,-11.5l21.2,-22l11.1,-10.6l11.5,-10.2l11.7,-10l12,-9.6l12.2,-9.2l12.4,-8.9l12.8,-8.5l12.9,-8.1l13.2,-7.8l13.3,-7.4l13.6,-7l27.7,-12.9l28.5,-11.3l29.1,-9.6l14.8,-4.3l14.8,-3.8l15,-3.3l15,-3l30.2,-4.6l15.2,-1.6l15.2,-1.3l15.3,-0.7l15.3,-0.4l15.3,0.1l30.5,1.4l15.3,1.4l15.3,1.8l15.2,2.2l15.1,2.7l29.9,6.6l29.4,8.3l14.5,4.7l14.4,5.2l14.2,5.6l14.1,5.9l27.6,13.2l13.5,7.1l13.4,7.6l13.2,7.9l12.9,8.3l25,17.7l24,19l22.8,20.3l21.6,21.6l10.4,11.2l10.1,11.6l9.7,11.8l9.3,12.1l9.1,12.3l8.7,12.7l8.4,12.9l7.9,13.1l7.6,13.3l7.2,13.5l6.8,13.7l6.4,13.9l6,14.1l5.6,14.2l5.2,14.3l4.8,14.5l4.4,14.7l4,14.8l3.5,14.8l3.2,15.1l2.7,15.1l2.3,15.2l1.8,15.2l1.4,15.3l1.6,30.5l0.1,15.3l-0.3,15.3l-2,30.5l-1.6,15.2l-2,15.1l-2.5,15.1l-2.9,15l-3.3,15l-13.3,53.3l-9,38.6l-8.4,38.6l-7.8,38.7l-7.3,38.8l-6.7,38.9l-6.1,39l-5.5,39.1l-5,39.1l-4.5,39.2l-3.8,39.3l-3.3,39.4l-2.7,39.4l-2.1,39.4l-1.6,39.5l-1,39.5l-0.4,39.5l0.2,730.6l-0.8,11.9l-4,17.3l-2.1,5.6l-5.3,10.6l-3.1,5.1l-3.5,4.8l-3.8,4.6l-4.1,4.3l-4.3,4.1l-4.6,3.7l-4.8,3.5l-5.1,3.1l-5.2,2.8l-5.5,2.5l-5.5,2l-5.7,1.7l-5.8,1.4l-5.9,0.9l-5.9,0.6l-5.9,0.2l-698.6,-0.2l-5.9,-0.6l-5.9,-1l-5.8,-1.3l-5.6,-1.7l-5.6,-2.1l-5.4,-2.5l-5.2,-2.8l-5.1,-3.1l-4.8,-3.4l-4.6,-3.8l-4.3,-4.1l-7.8,-8.9l-3.5,-4.8l-3.1,-5l-5.3,-10.7l-2.1,-5.6l-1.7,-5.6l-2.3,-11.6l-0.8,-11.9l0.1,-769.6l-0.5,-37.1l-1.1,-37l-1.6,-37l-2.2,-37l-2.7,-36.9l-3.3,-36.9l-3.8,-36.8l-4.4,-36.7l-5,-36.7l-5.5,-36.6l-6,-36.5l-6.6,-36.5l-7.2,-36.3l-7.6,-36.2l-8.3,-36.2l-8.8,-36l-13.9,-53.6l-3.9,-17.9l-3.4,-17.9l-2.8,-18l-2.1,-18.2l-1.5,-18.2l-1,-18.2l-0.3,-18.3z"/>
  <path id="svg_28" target-y="6329.4" target-x="6865.2" target-width="1969.2002" target-height="1315.6001" node-id="173" fill-rule="nonzero" fill="#f0f0f0" d="m6865.2,7645l1969.2,0l0,-1315.6l-1969.2,0l0,1315.6z"/>
  <path id="svg_29" target-y="4200.5" target-x="7826.1" target-width="2635.6997" target-height="2426.6" node-id="175" fill-rule="nonzero" fill="#e0e0e0" d="m10461.8,6627.1l-2635.7,0l0,-2017.7l0.3,-16.3l1,-16.2l1.6,-16l2.2,-15.9l2.8,-15.8l3.5,-15.7l4,-15.4l4.7,-15.3l5.2,-15l5.8,-14.9l6.4,-14.6l7,-14.4l7.5,-14l8,-13.8l8.7,-13.6l9.1,-13.1l9.7,-12.8l10.2,-12.5l10.8,-12.1l11.3,-11.7l11.7,-11.3l12.1,-10.8l12.5,-10.2l12.8,-9.7l13.1,-9.1l13.6,-8.6l13.7,-8.1l14.1,-7.5l14.4,-7l14.6,-6.4l14.9,-5.8l15,-5.2l15.3,-4.7l15.4,-4l15.7,-3.5l15.8,-2.8l15.9,-2.2l16,-1.6l16.2,-1l16.3,-0.3l1817.9,0l16.3,0.3l16.2,1l16,1.6l15.9,2.2l15.8,2.8l15.7,3.5l15.4,4l15.3,4.7l15,5.2l14.9,5.8l14.6,6.4l14.4,7l14.1,7.5l13.7,8.1l13.6,8.6l13.1,9.1l12.8,9.7l12.5,10.2l12,10.8l11.8,11.3l11.3,11.7l10.7,12.1l10.2,12.5l9.7,12.8l9.2,13.1l8.6,13.6l8.1,13.8l7.5,14l7,14.4l6.4,14.6l5.8,14.9l5.2,15l4.7,15.3l4,15.4l3.5,15.7l2.8,15.8l2.2,15.9l1.6,16l1,16.2l0.3,16.3l0,2017.7z"/>
  <path id="svg_30" target-y="4200.3" target-x="7311" target-width="2635.7002" target-height="2426.8003" node-id="177" fill-rule="nonzero" fill="#f5f5f5" d="m9946.7,6627.1l-2635.7,0l0,-2037.5l0.3,-15.5l0.9,-15.4l1.6,-15.3l2.1,-15.1l2.7,-15l3.3,-15l3.8,-14.7l4.4,-14.5l5,-14.3l5.5,-14.2l6.1,-13.9l6.7,-13.7l7.1,-13.4l7.7,-13.1l8.2,-12.9l8.7,-12.5l9.2,-12.2l9.8,-11.9l10.2,-11.5l10.7,-11.2l11.2,-10.8l11.6,-10.2l11.8,-9.7l12.2,-9.2l12.5,-8.7l12.9,-8.3l13.2,-7.6l13.4,-7.2l13.6,-6.6l13.9,-6.1l14.2,-5.5l14.3,-5l14.6,-4.4l14.7,-3.9l14.9,-3.3l15,-2.7l15.2,-2.1l15.2,-1.5l15.4,-0.9l15.5,-0.3l1856.2,0l15.5,0.3l15.4,0.9l15.2,1.5l15.1,2.1l15.1,2.7l14.9,3.3l14.7,3.9l14.5,4.4l14.4,5l14.1,5.5l14,6.1l13.6,6.6l13.4,7.2l13.2,7.6l12.9,8.3l12.5,8.7l12.2,9.2l11.8,9.7l11.6,10.2l11.2,10.8l10.7,11.2l10.2,11.5l9.7,11.9l9.3,12.2l8.7,12.5l8.2,12.9l7.7,13.1l7.1,13.4l6.7,13.7l6,13.9l10.6,28.5l4.4,14.5l3.8,14.7l3.3,15l2.7,15l2.1,15.1l1.5,15.3l1,15.4l0.3,15.5l0,2037.5l0.9,0z"/>
  <path id="svg_31" target-y="6211.1" target-x="6772.9" target-width="1968.3999" target-height="534" node-id="179" fill-rule="nonzero" fill="#e0e0e0" d="m8705.8,6745.1l-1815.2,0l-7.8,-0.3l-7.7,-0.8l-15.1,-3l-7.3,-2.2l-7.2,-2.7l-6.9,-3.2l-6.8,-3.6l-6.5,-4l-6.3,-4.5l-5.9,-4.9l-5.8,-5.3l-5.3,-5.7l-4.9,-6l-4.5,-6.3l-4,-6.5l-3.6,-6.8l-3.2,-6.9l-2.7,-7.2l-2.2,-7.3l-1.8,-7.5l-1.2,-7.6l-0.8,-7.7l-0.2,-7.8l0,-298.4l0.2,-7.8l0.8,-7.7l1.2,-7.6l1.8,-7.5l2.2,-7.3l5.9,-14.1l7.6,-13.3l4.5,-6.3l4.9,-6l5.3,-5.7l5.8,-5.3l5.9,-4.9l6.3,-4.5l6.5,-4l6.8,-3.7l14.1,-5.8l7.3,-2.2l7.5,-1.8l15.3,-2l7.8,-0.3l1815.2,0l9.2,1.2l8.5,3.6l3.9,2.5l3.5,3.2l3.1,3.5l2.6,3.8l2,4.2l1.5,4.4l0.9,4.5l0.3,4.7l0,463l-0.3,4.7l-2.5,8.9l-2,4.1l-2.6,3.8l-3.1,3.5l-3.5,3.1l-3.8,2.5l-4.2,2.1l-4.4,1.5l-4.5,0.8l-4.6,0.4z"/>
  <path id="svg_32" target-y="5478.2" target-x="8808.5" target-width="2387.9004" target-height="2166.7998" node-id="181" fill-rule="nonzero" fill="#f0f0f0" d="m10656.1,5478.2l18.8,0.1l9.5,0.4l9.6,0.7l16.3,1.4l16.2,1.9l16,2.4l15.9,2.9l31.5,7.1l15.6,4.2l15.4,4.7l15.2,5.2l15,5.6l14.9,6l14.7,6.5l14.5,6.9l14.3,7.4l14.1,7.7l13.8,8.2l13.6,8.6l13.4,9.1l13.1,9.4l12.8,9.8l12.5,10.2l24.3,21.6l11.7,11.4l11.4,11.8l10.9,12l10.5,12.3l10.2,12.6l19.1,26l8.9,13.5l8.5,13.6l8.2,13.9l7.6,14.1l7.3,14.3l6.8,14.5l6.4,14.8l6,14.9l5.5,15l5.1,15.3l4.6,15.4l4.2,15.6l7,31.5l2.7,15.9l4.1,32.2l1.4,16.4l0.9,17.8l0.3,17.7l-0.3,17.7l-0.8,17.7l-1.5,17.7l-2,17.7l-2.7,17.5l-6.9,34.8l-14,55.7l-9,38.5l-8.4,38.6l-7.9,38.8l-7.3,38.8l-6.7,38.9l-6.1,39l-5.6,39.1l-5,39.2l-4.4,39.2l-3.9,39.3l-3.3,39.4l-2.7,39.4l-2.1,39.5l-1.6,39.4l-1,39.5l-0.4,39.6l0.2,730.6l-0.2,6l-0.6,5.9l-1,5.8l-3,11.5l-2.1,5.6l-2.5,5.4l-2.8,5.2l-6.6,9.9l-3.7,4.6l-4.1,4.3l-4.4,4.1l-4.6,3.7l-4.8,3.5l-5.1,3.1l-5.2,2.8l-5.4,2.4l-5.6,2.1l-5.7,1.7l-5.8,1.4l-11.8,1.5l-5.9,0.2l-2193.6,0l0,-2166.8l1847.6,0z"/>
  <path id="svg_33" target-y="5474.8" target-x="8268.2" target-width="1080.7002" target-height="2170.2002" node-id="183" fill-rule="nonzero" fill="#f5f5f5" d="m8268.2,6018.7l0.1,-16.9l0.7,-16.8l1.2,-16.8l1.7,-16.6l2.2,-16.5l2.7,-16.5l3.3,-16.4l3.7,-16.2l4.2,-16l4.7,-16l5.2,-15.8l5.7,-15.5l6.1,-15.4l6.6,-15.2l7.1,-15.1l7.6,-14.8l8,-14.5l8.4,-14.3l8.9,-14.1l9.4,-13.9l9.8,-13.5l10.2,-13.2l10.6,-13l11.1,-12.7l11.5,-12.4l12,-12l12.2,-11.6l12.5,-11.1l12.8,-10.7l13.2,-10.3l13.5,-9.9l13.7,-9.5l13.9,-9l14.3,-8.6l14.4,-8.1l14.8,-7.7l14.9,-7.2l15.2,-6.7l15.3,-6.3l15.6,-5.8l15.7,-5.3l15.9,-4.9l16,-4.3l16.2,-3.9l16.4,-3.4l16.5,-2.9l16.5,-2.3l16.7,-1.9l16.8,-1.3l16.9,-0.8l16.9,-0.3l16.8,0.2l16.8,0.8l16.7,1.3l16.6,1.7l16.5,2.3l16.4,2.9l16.3,3.2l16.2,3.8l16,4.3l15.9,4.8l15.8,5.3l15.5,5.7l15.4,6.2l15.2,6.7l15,7.2l14.7,7.6l14.6,8.1l14.3,8.5l14.1,9l13.8,9.4l26.7,20.2l12.9,10.8l12.7,11.2l12.3,11.6l11.9,11.9l11.5,12.2l11.1,12.6l10.6,12.9l10.3,13.2l9.8,13.4l9.3,13.8l9,14l8.5,14.2l8,14.6l7.6,14.7l7.1,15l6.7,15.1l6.2,15.5l5.8,15.5l5.2,15.8l4.8,15.9l4.3,16.1l3.8,16.3l3.3,16.4l2.8,16.4l2.3,16.6l1.7,16.8l1.3,16.9l0.8,17.8l0.3,17.7l-0.3,17.8l-0.9,17.7l-1.5,17.7l-2,17.6l-2.6,17.5l-3.2,17.5l-3.7,17.3l-13.9,55.7l-9,38.5l-8.4,38.6l-7.9,38.7l-7.3,38.9l-6.7,38.9l-6.1,39l-5.6,39.1l-5,39.1l-4.4,39.2l-3.9,39.3l-3.3,39.4l-2.7,39.4l-2.1,39.4l-1.6,39.5l-1,39.5l-0.4,39.5l0.2,730.6l-0.8,11.9l-4.1,17.3l-4.5,10.9l-2.7,5.2l-10.4,14.4l-4.1,4.4l-4.4,4.1l-4.6,3.8l-9.8,6.6l-5.2,2.7l-5.4,2.5l-5.5,2l-11.4,3.1l-5.9,1l-5.9,0.6l-6,0.2l-698.9,-0.2l-11.7,-1.6l-5.8,-1.3l-5.6,-1.7l-5.6,-2.1l-10.6,-5.3l-5.1,-3.1l-4.8,-3.5l-4.6,-3.7l-4.3,-4.1l-7.8,-8.9l-3.5,-4.8l-3.1,-5.1l-2.8,-5.2l-2.5,-5.4l-2.1,-5.6l-1.7,-5.6l-1.3,-5.8l-1,-5.9l-0.6,-5.8l-0.2,-6l0.1,-768.9l-0.5,-37.1l-1.1,-37l-1.6,-37l-2.2,-36.9l-2.7,-37l-3.3,-36.9l-3.8,-36.8l-4.4,-36.7l-4.9,-36.7l-5.5,-36.6l-6,-36.5l-6.6,-36.5l-7.1,-36.3l-7.7,-36.2l-8.2,-36.1l-8.8,-36.1l-13.9,-53.6l-3.9,-17.9l-3.4,-17.9l-2.7,-18l-2.2,-18.2l-1.5,-18.2l-0.9,-18.2l-0.3,-18.3z"/>
  <path id="svg_34" target-y="7645" target-x="6093.1" target-width="4590.1" target-height="65.8999" node-id="185" fill-rule="nonzero" fill="#e0e0e0" d="m6158.8,7710.9l4458.7,0l6.4,-0.3l6.4,-0.9l6.3,-1.6l6.1,-2.2l5.9,-2.8l5.5,-3.3l9.9,-8.2l4.3,-4.8l3.9,-5.2l6.1,-11.4l3.7,-12.4l0.9,-6.4l0.3,-6.4l-4590.1,0l1.3,12.8l1.5,6.3l2.2,6.1l2.7,5.9l3.3,5.5l3.9,5.2l4.3,4.8l10,8.2l5.5,3.3l5.9,2.8l6,2.2l6.3,1.6l6.4,0.9l6.4,0.3z"/>
  <path id="svg_35" target-y="1094.2" target-x="8799.5" target-width="1434.0996" target-height="1564.1001" node-id="187" fill-rule="nonzero" fill="#e0e0e0" d="m8799.5,2658.3l1434.1,0l0,-1564.1l-1434.1,0l0,1564.1z"/>
  <path id="svg_36" target-y="1094.2" target-x="8714" target-width="1471.2998" target-height="1564.1001" node-id="189" fill-rule="nonzero" fill="#f5f5f5" d="m8714,2658.3l1471.3,0l0,-1564.1l-1471.3,0l0,1564.1z"/>
  <path id="svg_37" target-y="1217.4" target-x="8837" target-width="1224.9004" target-height="1317.7001" node-id="191" fill-rule="nonzero" fill="#ffffff" d="m10061.9,2535.1l0,-1317.7l-1224.9,0l0,1317.7l1224.9,0z"/>
  <path id="svg_38" target-y="1543.1" target-x="9114.6" target-width="669.8008" target-height="580.4" node-id="193" fill-rule="nonzero" fill="#f5f5f5" d="m9449.5,1543.1l334.9,580.4l-669.8,0l334.9,-580.4z"/>
  <path id="svg_39" target-y="2007.3" target-x="6787.7" target-width="1434.0996" target-height="1564.0999" node-id="195" fill-rule="nonzero" fill="#e0e0e0" d="m6787.7,3571.4l1434.1,0l0,-1564.1l-1434.1,0l0,1564.1z"/>
  <path id="svg_40" target-y="2007.3" target-x="6702.2" target-width="1471.2998" target-height="1564.0999" node-id="197" fill-rule="nonzero" fill="#f5f5f5" d="m6702.2,3571.4l1471.3,0l0,-1564.1l-1471.3,0l0,1564.1z"/>
  <path id="svg_41" target-y="2130.5" target-x="6825.1" target-width="1225" target-height="1317.8" node-id="199" fill-rule="nonzero" fill="#ffffff" d="m8050.1,3448.3l0,-1317.8l-1225,0l0,1317.8l1225,0z"/>
  <path id="svg_42" target-y="2513.5" target-x="7119.6" target-width="637" target-height="598" node-id="201" fill-rule="nonzero" fill="#f5f5f5" d="m7287.9,3024.3l-145.3,-251.8l-4.3,-8l-3.9,-8.2l-3.4,-8.3l-3,-8.5l-2.6,-8.6l-2.1,-8.8l-2.8,-17.8l-0.7,-9l-0.2,-9.1l0.2,-9.2l0.8,-9l1.1,-8.9l1.7,-8.9l2.1,-8.7l2.6,-8.7l6.5,-16.8l3.8,-8.2l4.4,-8l4.8,-7.8l5.1,-7.4l5.5,-7.2l5.8,-6.8l6.3,-6.5l6.5,-6.3l14,-11.3l7.5,-5.1l7.7,-4.8l8.1,-4.3l8.1,-3.9l8.4,-3.5l8.4,-3l8.7,-2.5l8.8,-2.1l17.8,-2.9l9,-0.7l9.1,-0.2l291.3,0l9.2,0.2l9,0.7l8.9,1.2l8.8,1.7l8.8,2.1l8.7,2.6l8.5,3l8.3,3.4l8.2,3.9l8,4.4l7.7,4.7l7.5,5.2l7.1,5.4l6.9,5.9l6.5,6.2l6.3,6.5l11.3,14l5.1,7.5l4.8,7.7l8.3,16.2l3.4,8.3l3.1,8.5l2.5,8.6l2.2,8.8l1.6,8.9l1.2,8.9l0.8,9l0.2,9.1l-0.2,9.1l-0.7,9.1l-2.7,17.7l-2.1,8.8l-2.6,8.7l-2.9,8.5l-3.5,8.3l-3.8,8.2l-4.3,8l-145.3,251.8l-4.8,7.9l-5.1,7.5l-5.5,7.2l-5.9,6.9l-6.2,6.6l-6.6,6.3l-14.1,11.4l-7.4,5.2l-7.8,4.8l-16.3,8.3l-8.4,3.5l-8.5,3l-8.7,2.6l-8.9,2.2l-8.9,1.6l-9,1.2l-9,0.7l-9.2,0.3l-9.2,-0.3l-9.1,-0.7l-8.9,-1.2l-8.9,-1.6l-8.9,-2.2l-8.7,-2.6l-8.5,-3l-8.4,-3.5l-8.2,-3.9l-8.1,-4.4l-7.8,-4.8l-7.5,-5.2l-7.1,-5.5l-6.9,-5.9l-6.6,-6.3l-6.2,-6.6l-5.9,-6.9l-5.5,-7.2l-5.1,-7.5l-4.8,-7.9z"/>
  <path id="svg_43" target-y="8241.3" target-x="1321.5" target-width="9133" target-height="533.2002" node-id="203" fill-rule="nonzero" fill="#f5f5f5" d="m5888,8774.5l157.7,-0.1l309.2,-1.2l153.6,-1.1l299.8,-3l148.7,-1.9l288.9,-4.7l143.1,-2.7l276.5,-6.2l136.6,-3.5l262.6,-7.7l129.4,-4.3l247.1,-9.1l121.5,-5l230,-10.3l112.8,-5.7l211.5,-11.6l103.3,-6.2l98.2,-6.3l93.2,-6.4l93.1,-6.8l87.6,-6.8l82.2,-6.9l82.1,-7.4l76.2,-7.3l70.4,-7.3l70.4,-7.9l64,-7.7l57.9,-7.7l44.1,-6.3l40.1,-6.2l36.4,-6.1l33,-5.9l27.7,-5.4l24.9,-5.2l22.3,-5.2l37.6,-9.7l30.5,-9.6l12.2,-4.5l10.4,-4.4l8.8,-4.1l7.3,-3.9l11.7,-7.8l4,-3.6l3,-3.5l3.7,-6.3l0.9,-3.1l0.3,-3l-0.3,-3l-0.9,-3l-1.5,-3.1l-2.2,-3.3l-3,-3.4l-4,-3.6l-5.2,-3.8l-13.8,-8l-8.8,-4.1l-22.6,-8.8l-14.1,-4.7l-16.4,-4.9l-17.7,-4.8l-19.9,-5l-22.3,-5.1l-24.9,-5.3l-60.7,-11.3l-36.4,-6.1l-40.1,-6.2l-44.1,-6.3l-57.9,-7.6l-64,-7.8l-70.4,-7.9l-70.4,-7.3l-76.2,-7.3l-82.1,-7.3l-82.2,-6.9l-87.6,-6.9l-93.1,-6.8l-191.4,-12.7l-103.3,-6.2l-211.5,-11.6l-112.8,-5.6l-230,-10.4l-121.5,-4.9l-247.1,-9.1l-129.4,-4.3l-262.6,-7.7l-273.3,-6.8l-139.8,-2.9l-286.1,-5.2l-145.9,-2.2l-297.4,-3.6l-151.1,-1.3l-307.2,-1.9l-155.6,-0.4l-157.7,-0.2l-313.3,0.6l-153.6,0.8l-304.7,2.4l-148.7,1.6l-294.6,4.2l-143,2.4l-282.9,5.7l-273.3,6.8l-133,3.7l-129.6,4l-254.9,8.7l-243.1,9.6l-117.1,5.1l-225.7,10.9l-108.1,5.8l-206.7,12l-98.2,6.4l-93.2,6.3l-93.1,6.8l-87.6,6.9l-82.2,6.9l-82.1,7.3l-76.2,7.3l-70.4,7.3l-70.4,7.9l-64,7.8l-57.9,7.6l-44.1,6.3l-40.1,6.2l-36.4,6.1l-33,5.9l-27.7,5.4l-24.9,5.3l-22.3,5.1l-19.9,5l-17.7,4.8l-16.4,4.9l-14.1,4.7l-12.2,4.5l-10.4,4.3l-8.8,4.1l-7.3,4l-6.5,4l-5.2,3.8l-4,3.6l-3,3.4l-2.2,3.3l-1.5,3.1l-0.9,3l-0.3,3l0.3,3l0.9,3.1l1.5,3.1l2.2,3.2l3,3.5l4,3.6l5.2,3.8l6.5,4l7.3,3.9l8.8,4.1l10.4,4.4l12.2,4.5l14.2,4.7l34,9.7l19.9,4.9l22.3,5.2l24.9,5.2l27.7,5.4l33,5.9l36.4,6.1l40.1,6.2l44.1,6.3l57.9,7.7l64,7.7l70.4,7.9l70.4,7.3l76.2,7.3l82.1,7.4l82.2,6.9l87.6,6.8l93.1,6.8l93.2,6.4l98.2,6.3l103.3,6.2l211.5,11.6l112.8,5.7l230,10.3l121.5,5l247.1,9.1l129.4,4.3l262.6,7.6l136.6,3.6l276.5,6.2l143.1,2.7l288.9,4.7l148.7,1.9l299.8,3l153.6,1.1l309.2,1.2l157.7,0.1z"/>
  <path id="svg_44" target-y="1043.4" target-x="2025" target-width="5786.5" target-height="7393.9" node-id="205" fill-rule="nonzero" fill="#429cfd" d="m7454.2,1043.4l-5429.2,0l357.3,7393.9l5429.2,0l-357.3,-7393.9z"/>
  <g id="svg_45" node-id="386">
   <path id="svg_46" target-y="1043.4" target-x="2025" target-width="5786.5" target-height="7393.9" node-id="209" group-id="1" fill-rule="nonzero" fill-opacity="0.2" fill="#000000" d="m7454.2,1043.4l-5429.2,0l357.3,7393.9l5429.2,0l-357.3,-7393.9z"/>
  </g>
  <path id="svg_47" target-y="1043.4" target-x="2075.2" target-width="5786.7" target-height="7393.9" node-id="212" fill-rule="nonzero" fill="#22c55e" d="m7504.4,1043.4l-5429.2,0l357.5,7393.9l5429.2,0l-357.5,-7393.9z"/>
  <g id="svg_48" node-id="387">
   <path id="svg_49" target-y="1292.1" target-x="2323.4" target-width="5305.1" target-height="6811" node-id="216" group-id="2" fill-rule="nonzero" fill-opacity="0.2" fill="#000000" d="m7217.7,1292.1l-4894.3,0l342,6811l4255.8,-5.7l707.3,-626.9l-410.8,-6178.4z"/>
  </g>
  <path id="svg_50" target-y="1291.8" target-x="2323.4" target-width="5425.2" target-height="6897.5" node-id="219" fill-rule="nonzero" fill="#ffffff" d="m7255.2,1291.8l5,185.5l5.7,185.4l6.3,185.4l6.9,185.3l7.6,185.3l8.1,185.3l8.8,185.2l9.4,185.2l10,185.1l10.6,185.2l11.3,185.1l11.8,185l12.5,185l13.1,185l13.7,184.9l14.4,184.9l14.9,184.8l15.6,184.7l16.2,184.7l16.8,184.7l17.5,184.6l18,184.6l18.7,184.5l19.2,184.4l19.9,184.4l20.6,184.2l21.1,184.3l21.7,184.1l22.4,184.1l23,184.1l23.6,183.9l24.2,183.9l24.8,183.9l-580.8,400.7l-576.8,400.1l-3660.4,0l-25.7,-171.4l-25.1,-171.5l-24.6,-171.5l-24,-171.5l-23.5,-171.7l-23,-171.7l-22.4,-171.7l-21.9,-171.8l-21.3,-171.9l-20.9,-172l-20.3,-172l-19.7,-172.1l-19.2,-172.1l-18.7,-172.2l-18.1,-172.2l-17.6,-172.3l-17.1,-172.3l-16.5,-172.4l-16,-172.5l-15.5,-172.5l-14.9,-172.5l-14.4,-172.6l-13.8,-172.7l-13.3,-172.6l-12.8,-172.7l-12.2,-172.8l-11.7,-172.8l-11.2,-172.8l-10.6,-172.9l-10.1,-172.9l-9.5,-173l-9,-173l-8.5,-173l-7.9,-173l-7.4,-173.1l-6.8,-173.1l-6.3,-173.1l-5.8,-173.1l-5.2,-173.2l-4.7,-173.3l4931.8,0z"/>
  <path id="svg_51" target-y="7129.4" target-x="6591" target-width="1157.6001" target-height="1059.8999" node-id="221" fill-rule="nonzero" fill="#ebebeb" d="m7748.6,7388.5l-580.8,400.7l-576.8,400.1l42.2,-176.5l42.8,-176.5l43.4,-176.6l44,-176.7l44.6,-176.8l45.2,-176.8l895.4,259.1z"/>
  <path id="svg_52" target-y="1836.1" target-x="2820.6" target-width="945.7998" target-height="906.2999" node-id="223" fill-rule="nonzero" fill="#22c55e" d="m3650.6,1915l7.2,187l7.8,187.1l8.4,187.1l9.1,187.3l-748.3,0l-7.3,-149.8l-6.9,-149.8l-6.5,-149.7l-6.1,-149.6l-5.7,-149.6l748.3,0zm76.3,-78.9l-906.3,0l6.6,181.1l7.3,181.2l7.8,181.3l8.5,181.3l9.1,181.4l906.5,0l-9.1,-181.3l-8.5,-181.3l-7.8,-181.2l-7.3,-181.3l-6.6,-181.2l-0.2,0z"/>
  <path id="svg_53" target-y="2026.9" target-x="4138.6" target-width="2569.5" target-height="169.09998" node-id="225" fill-rule="nonzero" fill="#e0e0e0" d="m6708.1,2196l-2562.9,0l-6.6,-169.1l2562.7,0l6.8,169.1z"/>
  <path id="svg_54" target-y="2382.5" target-x="4153.2" target-width="2013.3999" target-height="169.1001" node-id="227" fill-rule="nonzero" fill="#e0e0e0" d="m6166.6,2551.6l-2005.7,0l-7.7,-169.1l2005.4,0l8,169.1z"/>
  <path id="svg_55" target-y="3302" target-x="2891.7" target-width="970.80005" target-height="906.7002" node-id="229" fill-rule="nonzero" fill="#22c55e" d="m3724,3380.9l9.7,149.8l10,149.7l10.5,149.8l11,149.8l11.4,149.9l-748.5,0l-11.4,-149.9l-10.9,-149.8l-10.5,-149.8l-10.1,-149.8l-9.6,-149.7l748.4,0zm74,-78.9l-906.3,0l11.4,181.3l12.1,181.3l12.7,181.4l13.3,181.3l13.9,181.4l907.4,0l-13.8,-181.2l-13.3,-181.3l-12.7,-181.4l-12.2,-181.4l-11.6,-181.4l-0.9,0z"/>
  <path id="svg_56" target-y="3492.8" target-x="4213.9" target-width="953.3999" target-height="169.30005" node-id="231" fill-rule="nonzero" fill="#e0e0e0" d="m5167.3,3662.1l-942.1,0l-11.3,-169.3l942.1,0l11.3,169.3z"/>
  <path id="svg_57" target-y="3492.8" target-x="5355.3" target-width="703.9004" target-height="169.30005" node-id="233" fill-rule="nonzero" fill="#e0e0e0" d="m6059.2,3662.1l-692.6,0l-11.3,-169.3l692.6,0l11.3,169.3z"/>
  <path id="svg_58" target-y="3848.6" target-x="4238.7" target-width="2255.2998" target-height="169.3999" node-id="235" fill-rule="nonzero" fill="#e0e0e0" d="m6494,4018l-2242.9,0l-12.4,-169.4l2242.8,0l12.5,169.4z"/>
  <path id="svg_59" target-y="4768.6" target-x="3001.9" target-width="994.2002" target-height="907" node-id="237" fill-rule="nonzero" fill="#22c55e" d="m3836.4,4847.5l13.7,149.7l14.1,149.8l14.5,149.8l14.9,149.8l15.3,149.8l-748.5,0l-15.3,-149.8l-14.9,-149.8l-14.5,-149.8l-14.1,-149.8l-13.7,-149.7l748.5,0zm72.1,-78.9l-906.6,0l16.4,181.4l16.9,181.4l17.5,181.4l18.1,181.4l18.7,181.4l906.6,0l-18.6,-181.5l-18.1,-181.5l-17.5,-181.4l-17,-181.3l-16.4,-181.3z"/>
  <path id="svg_60" target-y="5315.5" target-x="4363.5" target-width="2580.1" target-height="169.1001" node-id="239" fill-rule="nonzero" fill="#e0e0e0" d="m6926.6,5315.5l-2563.1,0l16.9,169.1l2563.2,0l-17,-169.1z"/>
  <path id="svg_61" target-y="4959.6" target-x="4329.8" target-width="2021.2002" target-height="169.1001" node-id="241" fill-rule="nonzero" fill="#e0e0e0" d="m6335.5,4959.6l-2005.7,0l15.8,169.1l2005.4,0l-15.5,-169.1z"/>
  <path id="svg_62" target-y="6235.2" target-x="3151.3" target-width="1017.40015" target-height="906.5" node-id="243" fill-rule="nonzero" fill="#22c55e" d="m3987.8,6314.1l22.2,187.2l22.9,187.1l23.4,187.2l24.1,187.2l-748.5,0l-24.1,-187.1l-23.4,-187.1l-22.8,-187.2l-22.3,-187.3l748.5,0zm70.7,-78.9l-907.2,0l17.5,151.1l17.9,151.2l18.4,151.1l18.9,151l19.3,151.1l19.8,151l905.6,0l-23.5,-181.2l-23,-181.3l-22.4,-181.3l-21.8,-181.3l-21.2,-181.4l1.7,0z"/>
  <path id="svg_63" target-y="6425.2" target-x="4484.3" target-width="2583.4004" target-height="169.3999" node-id="245" fill-rule="nonzero" fill="#e0e0e0" d="m7067.7,6594.6l-2563.1,0l-20.3,-169.4l2562.9,0l20.5,169.4z"/>
  <path id="svg_64" target-y="6781.8" target-x="4527.6" target-width="1188.1997" target-height="169.1001" node-id="247" fill-rule="nonzero" fill="#e0e0e0" d="m5715.8,6950.9l-1166.7,0l-21.5,-169.1l1166.8,0l21.4,169.1z"/>
  <path id="svg_65" target-y="6781.8" target-x="5887.3" target-width="525.2002" target-height="169.1001" node-id="249" fill-rule="nonzero" fill="#e0e0e0" d="m6412.5,6950.9l-503.8,0l-21.4,-169.1l503.8,0l16.4,126.9l5,42.2z"/>
  <path id="svg_66" target-y="1927.5" target-x="3016.1" target-width="865.5" target-height="629.1001" node-id="251" fill-rule="nonzero" fill="#22c55e" d="m3320.8,2556.6l-40.2,-63.5l-15.1,-21.3l-8.3,-10.6l-11.3,-13.7l-11.8,-13.6l-12.3,-13.4l-12.7,-13l-12.8,-12.7l-13,-12.4l-26.4,-23.7l-13.1,-11.1l-19.7,-16.1l-18.8,-14.7l-18.5,-13.9l-33.3,-23.6l-14.1,-9.4l-23.3,-14.6l38.1,-67.5l20,12.4l19.6,12.8l19.3,13.2l19,13.6l18.7,14.1l18.4,14.4l18.1,14.9l17.7,15.2l17.4,15.6l17.1,16l16.7,16.4l16.3,16.7l16,17.1l15.6,17.5l15.3,17.8l16.2,-21.6l17,-21.8l17.9,-22.1l18.9,-22.5l19.8,-22.7l20.9,-23.1l21.8,-23.4l21.3,-22.1l22.3,-22.5l23.3,-22.8l24.3,-23.1l25.3,-23.5l26.5,-23.9l27.6,-24.3l31.3,-26.7l32.7,-27.4l34.2,-27.8l35.8,-28.3l37.4,-28.9l39,-29.5l48.7,63.6l-37.2,28.2l-35.7,27.6l-34.2,27.1l-32.7,26.6l-31.3,26l-31.7,27.2l-30.2,26.6l-28.8,26.1l-27.5,25.6l-26.1,25.1l-22,21.9l-21.1,21.5l-20.2,21.3l-19.2,20.9l-18.4,20.6l-17.6,20.3l-17.7,21.2l-16.8,20.9l-16,20.7l-15.2,20.4l-14.4,20.1l-13.6,19.9l-33.2,49.7z"/>
  <path id="svg_67" target-y="3393.4" target-x="3097.8" target-width="858.19995" target-height="629.5" node-id="253" fill-rule="nonzero" fill="#22c55e" d="m3410.3,4022.9l-41.8,-63.4l-15.7,-21.3l-20.2,-24.4l-12.2,-13.6l-12.6,-13.3l-26.1,-25.8l-13.4,-12.4l-27,-23.7l-13.4,-11.2l-20.1,-16.1l-19.2,-14.7l-18.9,-14l-33.9,-23.6l-14.3,-9.3l-23.7,-14.6l36,-67.6l20.3,12.4l20.1,12.8l19.7,13.2l19.4,13.7l19.1,14l18.8,14.5l18.5,14.8l18.1,15.3l17.9,15.6l17.5,16l17.1,16.4l16.8,16.8l16.5,17.1l16,17.5l15.8,17.8l15.5,-21.5l16.5,-21.9l17.3,-22.2l18.3,-22.4l19.2,-22.8l20.2,-23.1l21.2,-23.4l20.6,-22.1l21.7,-22.5l22.7,-22.8l23.7,-23.2l24.7,-23.5l25.8,-23.9l26.9,-24.3l30.6,-26.8l32,-27.3l33.5,-27.9l35,-28.4l36.6,-28.9l38.2,-29.5l50.4,63.8l-36.5,28.2l-34.9,27.7l-33.5,27.1l-31.9,26.6l-30.6,26l-31,27.2l-29.5,26.6l-28.1,26.1l-26.8,25.6l-25.4,25.1l-21.5,21.9l-20.5,21.6l-19.6,21.2l-18.7,20.9l-17.8,20.6l-17,20.3l-17.1,21.2l-16.3,21l-15.4,20.7l-14.7,20.4l-13.8,20.1l-45.1,69.6z"/>
  <path id="svg_68" target-y="4863.7" target-x="3219.6" target-width="851.09985" target-height="629.5996" node-id="255" fill-rule="nonzero" fill="#22c55e" d="m3540.3,5493.3l-43.5,-63.5l-16.4,-21.3l-8.8,-10.6l-12,-13.8l-12.6,-13.5l-13,-13.4l-13.3,-13.1l-13.5,-12.7l-13.7,-12.3l-27.7,-23.8l-34.3,-27.2l-19.5,-14.7l-19.3,-14l-34.5,-23.5l-14.6,-9.3l-24,-14.6l34.3,-67.5l20.7,12.4l20.3,12.8l20.1,13.2l19.7,13.7l19.5,14l19.2,14.5l18.8,14.8l18.6,15.2l18.2,15.7l17.9,16l17.6,16.3l17.2,16.7l16.9,17.1l16.6,17.5l16.2,17.8l15,-21.6l15.9,-21.9l16.7,-22.1l17.7,-22.5l18.6,-22.8l19.6,-23l20.6,-23.4l20.1,-22.1l21,-22.5l22.1,-22.8l23,-23.2l24.1,-23.5l25.2,-23.9l26.3,-24.2l29.8,-26.8l31.2,-27.4l32.7,-27.8l34.3,-28.5l35.8,-28.9l37.3,-29.6l52.3,63.9l-35.6,28.2l-34.1,27.6l-32.6,27.1l-31.3,26.6l-29.8,26.1l-30.3,27.1l-28.9,26.6l-27.4,26.1l-26.1,25.7l-24.8,25.1l-21,21.9l-20,21.5l-19,21.2l-18.2,20.9l-17.4,20.7l-16.4,20.3l-16.6,21.2l-15.8,20.9l-14.9,20.7l-14,20.4l-13.3,20.2l-12.5,19.9l-30.4,49.7z"/>
  <path id="svg_69" target-y="7534.3" target-x="3316.4" target-width="2598.2002" target-height="248.7002" node-id="257" fill-rule="nonzero" fill="#ebebeb" d="m5914.6,7783l-17.5,-0.3l-16.6,-0.8l-15.7,-1.2l-30.1,-3.9l-14.4,-2.6l-13.8,-2.9l-13,-3.3l-25.8,-7.7l-12,-4.2l-11.5,-4.4l-15.3,-6.5l-14.5,-6.7l-13.8,-6.9l-13.7,-7.4l-25.6,-14.9l-71.2,-44.8l-23.2,-13.6l-11.8,-6.4l-12,-6.1l-12.3,-5.7l-12.7,-5.4l-9.7,-3.7l-10,-3.4l-10.4,-3.3l-21.7,-5.6l-11.3,-2.3l-12,-2l-12.5,-1.8l-12.4,-1.3l-27.1,-1.6l-14.8,-0.2l-28.6,0.9l-12.9,1l-12,1.4l-12.3,1.8l-11.5,2.1l-20.8,5l-10.2,3.1l-9.6,3.4l-9.1,3.5l-8.7,3.7l-11.4,5.5l-10.7,5.8l-10.3,6l-10,6.4l-9.7,6.6l-9.4,6.8l-41.7,32.2l-25.2,18.7l-22.5,14.7l-11.8,7l-12.6,6.7l-13.6,6.6l-10.3,4.4l-10.9,4.3l-11.6,4.1l-12.2,3.8l-12.2,3.3l-12.9,3l-13.8,2.6l-14.7,2.3l-14.4,1.8l-15.5,1.3l-16.4,0.8l-17.5,0.3l-17.5,-0.3l-16.6,-0.8l-15.8,-1.2l-14.9,-1.7l-15.2,-2.2l-14.4,-2.6l-13.7,-2.9l-13.1,-3.3l-13.1,-3.7l-12.6,-4l-23.6,-8.6l-15.2,-6.5l-14.5,-6.7l-13.8,-6.9l-13.6,-7.4l-25.6,-14.9l-71,-44.8l-23.2,-13.6l-23.7,-12.5l-12.3,-5.7l-12.8,-5.4l-19.7,-7.1l-10.4,-3.3l-21.6,-5.6l-11.4,-2.3l-24.6,-3.8l-12.4,-1.3l-13.1,-1l-14,-0.6l-14.8,-0.2l-14.8,0.3l-13.9,0.6l-12.9,1l-12,1.4l-23.8,3.9l-10.8,2.4l-10.1,2.6l-10.1,3.1l-9.6,3.4l-17.8,7.2l-11.3,5.5l-10.8,5.8l-20.2,12.4l-19.1,13.4l-56.7,43.5l-21.1,14.8l-11.6,7.3l-11.8,7l-12.6,6.7l-13.6,6.6l-10.3,4.4l-10.9,4.3l-11.5,4.1l-12.3,3.8l-12.1,3.3l-13,3l-13.7,2.6l-14.7,2.3l-14.4,1.8l-15.4,1.3l-16.4,0.8l-17.5,0.3l-17.5,-0.3l-16.6,-0.8l-15.7,-1.2l-14.9,-1.7l-15.2,-2.2l-14.4,-2.6l-13.7,-2.9l-13.1,-3.3l-13.1,-3.7l-12.6,-4l-12.1,-4.2l-11.5,-4.4l-15.3,-6.5l-14.5,-6.7l-13.8,-6.9l-26.8,-14.8l-31.1,-19l-52.6,-33.3l-23.2,-13.6l-23.7,-12.5l-12.4,-5.7l-12.7,-5.4l-9.6,-3.7l-20.5,-6.7l-10.8,-3l-22.2,-4.9l-11.9,-2l-12.6,-1.8l-12.4,-1.3l-13.1,-1l-14,-0.6l-14.8,-0.2l-9.4,-67.8l17.5,0.3l16.6,0.8l15.7,1.2l14.9,1.7l15.2,2.2l14.4,2.6l26.8,6.2l25.7,7.7l23.5,8.6l15.2,6.5l14.5,6.7l13.8,6.9l26.7,14.8l31.1,19l52.6,33.3l23.2,13.6l23.7,12.5l12.3,5.7l12.8,5.4l9.6,3.7l20.4,6.7l21.6,5.6l11.4,2.3l11.9,2l12.6,1.8l12.3,1.3l13.2,0.9l13.9,0.6l14.8,0.3l14.8,-0.3l13.8,-0.6l24.9,-2.4l12.3,-1.8l11.5,-2.1l10.7,-2.4l10.1,-2.7l19.8,-6.4l17.8,-7.2l11.4,-5.5l10.7,-5.8l10.3,-6l19.7,-13.1l23.3,-17.3l27.8,-21.6l15,-11.4l21.2,-14.7l11.5,-7.3l11.9,-7l12.6,-6.7l13.6,-6.6l21.2,-8.7l23.9,-7.9l12.2,-3.3l12.9,-3l13.8,-2.7l14.7,-2.3l14.5,-1.7l15.4,-1.3l16.4,-0.8l17.6,-0.3l17.5,0.3l16.6,0.8l15.7,1.2l14.9,1.7l15.2,2.2l14.4,2.6l13.7,2.9l13,3.3l25.7,7.7l12,4.2l11.5,4.4l15.2,6.5l14.5,6.7l13.8,6.9l13.6,7.4l13,7.4l31.1,19l52.6,33.3l23.2,13.6l23.8,12.5l12.3,5.7l22.4,9.1l20.5,6.7l10.8,3l22.1,4.9l12,2l12.6,1.8l12.3,1.3l13.2,0.9l13.9,0.6l14.8,0.3l14.8,-0.3l26.7,-1.6l12,-1.4l12.3,-1.8l11.5,-2.1l10.8,-2.4l20.2,-5.8l9.6,-3.3l9.2,-3.5l8.6,-3.7l11.4,-5.5l10.8,-5.8l10.2,-6l10,-6.4l19.1,-13.5l56.7,-43.5l21.2,-14.7l11.6,-7.3l11.8,-7l12.7,-6.7l13.6,-6.6l10.2,-4.5l11,-4.2l11.5,-4.1l12.3,-3.8l12.2,-3.3l26.8,-5.7l14.7,-2.3l14.4,-1.7l15.4,-1.3l16.5,-0.8l17.5,-0.3l17.5,0.3l16.6,0.8l15.7,1.2l15,1.7l15.1,2.2l14.4,2.6l13.7,2.9l13.1,3.3l25.7,7.7l23.5,8.6l15.3,6.5l14.5,6.7l13.8,6.9l13.6,7.4l13.1,7.4l31.1,19l52.5,33.3l23.2,13.6l23.8,12.5l12.3,5.7l12.7,5.4l9.7,3.7l10,3.4l10.4,3.3l10.8,3l10.8,2.6l11.4,2.3l12,2l12.5,1.8l12.4,1.3l13.2,0.9l14,0.6l14.8,0.3l9.6,67.8z"/>
  <path id="svg_70" target-y="550.4" target-x="3460" target-width="2685" target-height="760" node-id="259" fill-rule="nonzero" fill="#263238" d="m6113.9,1226.4l-7.2,-18.2l-7.6,-17.7l-8,-17.2l-8.5,-16.8l-9,-16.3l-9.5,-16.2l-9.9,-15.7l-10.3,-15.2l-10.7,-14.8l-11,-14.3l-11.6,-14l-11.9,-13.4l-12.2,-13l-12.5,-12.5l-12.9,-11.9l-13.3,-11.6l-13.5,-11.1l-13.8,-10.5l-14.1,-9.9l-14.3,-9.4l-14.7,-9l-14.9,-8.3l-15.1,-7.8l-15.3,-7.2l-15.6,-6.7l-15.7,-6l-16,-5.5l-16,-4.8l-16.2,-4.3l-16.4,-3.6l-13.8,-2.5l-13.8,-2.1l-13.9,-1.6l-14,-1.2l-14.1,-0.7l-14.1,-0.2l-403.2,0l-7.5,-0.3l-14.8,-1.5l-7.4,-1.4l-9.6,-2.3l-9.4,-2.9l-9.3,-3.5l-6.8,-3.1l-13.1,-7l-6.3,-4.1l-6.2,-4.3l-11.5,-9.5l-5.3,-5.1l-6.8,-7.3l-6.3,-7.6l-5.8,-8.1l-3.9,-6.2l-7.1,-13.2l-9,-20.3l-6.5,-13.1l-6.9,-12.8l-7.4,-12.5l-7.9,-12.3l-8.4,-11.9l-8.8,-11.6l-9.2,-11.2l-9.7,-10.8l-10.1,-10.5l-10.5,-10.1l-10.8,-9.7l-11.3,-9.3l-11.6,-8.8l-12.1,-8.5l-12.4,-7.9l-12.6,-7.5l-12.8,-6.9l-13.1,-6.4l-13.3,-5.9l-13.5,-5.4l-13.7,-4.8l-13.9,-4.3l-14,-3.8l-14.2,-3.2l-14.3,-2.7l-14.4,-2.1l-14.5,-1.6l-14.6,-1l-14.7,-0.5l-14.3,0.2l-14.1,0.7l-14,1.4l-13.9,1.9l-13.9,2.5l-13.7,3.1l-13.5,3.7l-13.4,4.2l-13.1,4.8l-13.1,5.4l-12.7,5.9l-12.5,6.4l-12.3,7l-11.9,7.5l-11.8,8l-11.4,8.6l-10.9,9l-10.5,9.3l-10.1,9.8l-9.6,10.3l-9.3,10.6l-8.7,11l-8.3,11.3l-7.7,11.6l-7.4,12.1l-6.8,12.3l-6.2,12.5l-5.8,12.9l-5.2,13.1l-7.1,20.3l-5.9,13.2l-7.2,12.4l-8.4,11.6l-9.7,10.7l-5.2,4.9l-11.3,9l-12.2,7.9l-6.3,3.3l-13.2,5.8l-6.8,2.3l-6.9,2l-7,1.6l-7.1,1.2l-7.1,0.9l-7.2,0.5l-410.2,0.1l-14.3,0.2l-14,0.8l-13.9,1.1l-13.7,1.7l-13.6,2l-13.5,2.6l-13.5,3l-13.2,3.4l-13.1,3.8l-12.9,4.3l-12.8,4.6l-12.6,5.2l-14.9,6.6l-14.7,7.3l-14.3,7.8l-14.1,8.3l-13.8,9l-13.5,9.4l-13.1,10l-12.8,10.5l-12.4,11.1l-12.2,11.5l-11.7,12l-11.3,12.5l-11,13l-10.6,13.4l-10.2,14l-9.6,14.3l-9.3,14.7l-8.8,15.2l-8.3,15.7l-8,16.2l-7.3,16.3l-6.9,16.7l-6.4,17.2l-5.8,17.6l-5.4,18.2l-23.6,84l2685,0l-31.1,-84z"/>
  <path id="svg_71" target-y="1227.8" target-x="3398.7" target-width="2808.5999" target-height="165.5" node-id="261" fill-rule="nonzero" fill="#429cfd" d="m6128.2,1393.3l-2642.5,0l-7.4,-0.4l-7.3,-1l-7.1,-1.6l-7,-2.2l-6.7,-2.7l-6.6,-3.3l-6.2,-3.9l-5.9,-4.3l-5.6,-4.9l-5.1,-5.4l-4.7,-5.6l-4.1,-6.1l-3.6,-6.3l-3.1,-6.6l-2.5,-6.9l-1.9,-7.1l-1.4,-7.2l-0.7,-7.4l-0.1,-5.3l0.9,-10.6l2.3,-10.4l1.6,-5.1l2.1,-4.9l2.3,-4.8l5.6,-9.1l3.3,-4.2l3.6,-3.9l7.8,-7.3l8.8,-6l4.7,-2.6l4.8,-2.2l10.1,-3.5l10.4,-2.1l5.3,-0.5l2647.9,-0.1l7.4,0.4l7.3,1l7.1,1.6l7,2.1l6.7,2.8l6.5,3.3l6.2,3.8l5.9,4.3l5.6,4.9l5.2,5.4l4.6,5.6l4.1,6l3.7,6.4l3,6.6l2.5,6.8l2,7.1l1.4,7.2l0.7,7.3l0.2,5.4l-0.3,5.3l-1.6,10.6l-2.9,10.2l-2.1,5l-2.3,4.8l-5.6,9.1l-6.9,8.2l-3.8,3.7l-4,3.5l-8.8,6.1l-9.5,4.8l-5,1.9l-5.1,1.6l-10.5,2.1l-10.7,0.6z"/>
  <g id="svg_72" node-id="388">
   <path id="svg_73" target-y="1227.8" target-x="3398.7" target-width="2808.5999" target-height="165.5" node-id="265" group-id="3" fill-rule="nonzero" fill-opacity="0.2" fill="#000000" d="m6128.2,1393.3l-2642.5,0l-7.4,-0.4l-7.3,-1l-7.1,-1.6l-7,-2.2l-6.7,-2.7l-6.6,-3.3l-6.2,-3.9l-5.9,-4.3l-5.6,-4.9l-5.1,-5.4l-4.7,-5.6l-4.1,-6.1l-3.6,-6.3l-3.1,-6.6l-2.5,-6.9l-1.9,-7.1l-1.4,-7.2l-0.7,-7.4l-0.1,-5.3l0.9,-10.6l2.3,-10.4l1.6,-5.1l2.1,-4.9l2.3,-4.8l5.6,-9.1l3.3,-4.2l3.6,-3.9l7.8,-7.3l8.8,-6l4.7,-2.6l4.8,-2.2l10.1,-3.5l10.4,-2.1l5.3,-0.5l2647.9,-0.1l7.4,0.4l7.3,1l7.1,1.6l7,2.1l6.7,2.8l6.5,3.3l6.2,3.8l5.9,4.3l5.6,4.9l5.2,5.4l4.6,5.6l4.1,6l3.7,6.4l3,6.6l2.5,6.8l2,7.1l1.4,7.2l0.7,7.3l0.2,5.4l-0.3,5.3l-1.6,10.6l-2.9,10.2l-2.1,5l-2.3,4.8l-5.6,9.1l-6.9,8.2l-3.8,3.7l-4,3.5l-8.8,6.1l-9.5,4.8l-5,1.9l-5.1,1.6l-10.5,2.1l-10.7,0.6z"/>
  </g>
  <path id="svg_74" target-y="7966.7" target-x="8310.6" target-width="189.80078" target-height="399.7002" node-id="268" fill-rule="nonzero" fill="#ffc3bd" d="m8500.4,8366.4l-172.6,0l-17.2,-399.7l172.6,0l17.2,399.7z"/>
  <path id="svg_75" target-y="7966.7" target-x="9277.1" target-width="259.30078" target-height="399.7002" node-id="270" fill-rule="nonzero" fill="#ffc3bd" d="m9536.4,8366.4l-172.6,0l-86.7,-399.7l172.4,0l86.9,399.7z"/>
  <path id="svg_76" target-y="8346.4" target-x="9082.5" target-width="512.0996" target-height="196.09961" node-id="272" fill-rule="nonzero" fill="#263238" d="m9351.6,8346.4l193.8,0l2.5,0.2l2.5,0.6l2.3,1l2.1,1.4l1.8,1.8l1.5,2l1.2,2.3l0.7,2.4l34.1,153.6l0.5,3.8l-0.7,7.5l-1.2,3.6l-3.8,6.4l-5.6,5.1l-3.3,1.8l-3.6,1.4l-3.7,0.8l-3.8,0.2l-31.3,-0.8l-83.4,-3.3l-32.4,-0.8l-38.7,-0.3l-56.5,1.1l-107.8,3.3l-68.6,1l-7.8,-0.3l-7.2,-0.8l-6.4,-1.2l-5.8,-1.6l-11.1,-4.6l-4.7,-2.7l-4.2,-2.9l-4,-3.4l-6.5,-7.1l-2.6,-3.7l-2.3,-4l-1.8,-4l-1.5,-3.9l-1,-4l-0.8,-4l0.1,-11.1l0.8,-3.5l1.1,-3.1l1.4,-2.8l1.8,-2.6l4.4,-4.1l2.7,-1.5l3.1,-1l22.1,-5.1l19.9,-5.2l35.8,-10.8l16,-5.7l28.6,-11.7l24.3,-11.9l11.4,-6.3l10.3,-6.3l9.4,-6.2l9.1,-6.5l16.5,-12.7l26.3,-22.4l4.3,-2.6l4.7,-2.1l4.8,-1.5l5,-0.9l5.2,-0.3z"/>
  <path id="svg_77" target-y="8346.4" target-x="7913.4" target-width="653.3003" target-height="196.09961" node-id="274" fill-rule="nonzero" fill="#263238" d="m8328.9,8346.4l188.4,0l2.6,0.2l2.4,0.6l2.3,1l2.1,1.4l1.9,1.8l1.5,2l1.1,2.3l0.8,2.4l34.1,153.6l0.6,3.6l0,3.7l-0.5,3.6l-1.1,3.6l-6,9.1l-9.4,5.7l-3.5,0.9l-3.7,0.4l-145.8,-3.7l-53.4,-1l-52.5,-0.5l-58.7,0.6l-177.7,4.3l-67,0.5l-7.6,-0.3l-7.1,-0.7l-6.5,-1.3l-5.9,-1.6l-6,-2.1l-5.5,-2.5l-5,-2.7l-4.5,-2.9l-4.4,-3.4l-3.9,-3.5l-6.5,-7.3l-5.2,-8l-1.9,-4l-1.5,-3.9l-2.1,-7.9l-0.4,-3.7l0,-3.5l0.3,-3.5l0.7,-3.1l1.1,-2.9l1.5,-2.5l1.8,-2.2l2.2,-1.9l2.6,-1.4l3.1,-1.1l28.7,-6l27.7,-5.4l80.2,-14.6l25.7,-5l33.9,-7.5l33.3,-8.7l16.6,-5l16.5,-5.5l16.4,-6l16.5,-6.7l16.6,-7.5l12.2,-5.9l12.3,-6.5l12.5,-7l18.8,-11.2l6.5,-3.2l6.7,-2.5l6.9,-2l7,-1.3l7.2,-0.7z"/>
  <path id="svg_78" target-y="2070.7" target-x="8299.3" target-width="418.9004" target-height="495.1001" node-id="276" fill-rule="nonzero" fill="#ffc3bd" d="m8667.1,2070.7l-6.3,36.6l-5.4,38.1l-2.1,19.2l-1.8,19.3l-1.2,19.4l-0.7,19.2l0,19.1l0.3,14.3l0.8,14.1l2.9,27.6l2.2,13.6l2.7,13.3l3.2,13l3.7,12.6l3.4,10l3.8,9.7l4.2,9.5l4.6,9.2l5,8.9l5.4,8.6l5.9,8.4l6.3,8l6.9,7.8l7.3,7.4l-4.5,9.1l-7.8,12l-9.5,12.1l-5.5,6.3l-6.6,6.7l-7.8,7.3l-12.5,10.3l-7.4,5.4l-16.2,10.6l-8.9,5.1l-9.7,5l-10.6,5l-10.5,4.5l-11.4,4.4l-12.3,4.2l-13.4,4l-13.1,3.4l-14.2,3.1l-15.3,2.8l-16.4,2.5l-16.1,1.8l-17.2,1.4l-18.5,0.8l-19.8,0.4l-14.8,-0.3l-13.4,-0.6l-11.9,-0.9l-10.7,-1.2l-11,-1.8l-9.7,-1.9l-16,-4.5l-7.7,-2.9l-6.6,-3l-5.6,-3.2l-4.8,-3.1l-4.7,-3.8l-7.2,-7.5l-2.7,-3.9l-2.3,-4.1l-1.8,-4.2l-2.2,-8.5l-0.6,-5.8l0,-5.8l0.5,-5.8l1.1,-5.8l3.2,-11.1l3.2,-7.9l3.5,-7.2l3.8,-6.7l3.4,-5.5l8.1,-11.2l9.5,-2.5l8.8,-2.9l8.4,-3.2l7.8,-3.6l7.3,-3.9l7.2,-4.4l6.7,-4.7l6.4,-4.9l5.9,-5.2l5.5,-5.5l6.6,-7.4l5.9,-7.7l5.5,-8.1l5,-8.4l4.4,-8.8l4,-9l3.6,-9.3l3.1,-9.6l2.7,-9.7l2.3,-9.9l1.9,-10.1l3.1,-24l0.9,-13.8l0.4,-13.9l-0.1,-13.9l-0.6,-13.7l-1,-13.6l-1.3,-13.5l-3.7,-25.6l-2.3,-12.6l-5.1,-22.7l232.2,-60.8z"/>
  <path id="svg_79" target-y="2347.1" target-x="8258.8" target-width="528.9004" target-height="133.3999" node-id="278" fill-rule="nonzero" fill="#429cfd" d="m8258.8,2455.3l2.7,-9.3l2.5,-4.8l3.3,-5.1l3.6,-4.7l4.3,-4.7l4.9,-4.8l11.6,-9.4l13.2,-8.8l7.5,-4.3l10.1,-5.3l10.9,-5l11.5,-4.6l11.7,-4.1l12.1,-3.5l22.6,-5.2l46.1,-7.5l39,-5.1l43.4,-4.8l45.8,-3.8l23.2,-1.5l22.9,-1.1l22.7,-0.7l21.7,-0.1l27.8,0.7l12.8,0.8l12.7,1.1l11.5,1.4l18.4,3.3l13.2,3.7l5.6,2l6,2.9l5.1,3l4.3,3.1l3.5,3.2l3.1,3.7l2.6,3.7l2,3.9l2.3,8.1l0.7,8.7l-0.3,4.4l-0.9,6l-1.5,6l-2,6l-5.1,11.8l-8,14l-4.9,7.4l-5.1,7.1l-4.5,5.7l-10.1,11.7l-486.5,-25.2z"/>
  <g id="svg_80" node-id="389">
   <path id="svg_81" target-y="2347.1" target-x="8258.8" target-width="528.9004" target-height="133.3999" node-id="282" group-id="4" fill-rule="nonzero" fill-opacity="0.4" fill="#ffffff" d="m8258.8,2455.3l2.7,-9.3l2.5,-4.8l3.3,-5.1l3.6,-4.7l4.3,-4.7l4.9,-4.8l11.6,-9.4l13.2,-8.8l7.5,-4.3l10.1,-5.3l10.9,-5l11.5,-4.6l11.7,-4.1l12.1,-3.5l22.6,-5.2l46.1,-7.5l39,-5.1l43.4,-4.8l45.8,-3.8l23.2,-1.5l22.9,-1.1l22.7,-0.7l21.7,-0.1l27.8,0.7l12.8,0.8l12.7,1.1l11.5,1.4l18.4,3.3l13.2,3.7l5.6,2l6,2.9l5.1,3l4.3,3.1l3.5,3.2l3.1,3.7l2.6,3.7l2,3.9l2.3,8.1l0.7,8.7l-0.3,4.4l-0.9,6l-1.5,6l-2,6l-5.1,11.8l-8,14l-4.9,7.4l-5.1,7.1l-4.5,5.7l-10.1,11.7l-486.5,-25.2z"/>
  </g>
  <g id="svg_82" node-id="390">
   <path id="svg_83" target-y="7966.9" target-x="8310.6" target-width="181.60059" target-height="205.8999" node-id="287" group-id="5" fill-rule="nonzero" fill-opacity="0.2" fill="#000000" d="m8310.6,7966.9l8.9,205.9l172.7,0l-9,-205.9l-172.6,0z"/>
  </g>
  <g id="svg_84" node-id="391">
   <path id="svg_85" target-y="7966.9" target-x="9277.1" target-width="217.40039" target-height="205.8999" node-id="292" group-id="6" fill-rule="nonzero" fill-opacity="0.2" fill="#000000" d="m9449.8,7966.9l-172.7,0l44.8,205.9l172.6,0l-44.7,-205.9z"/>
  </g>
  <path id="svg_86" target-y="2593.1" target-x="8867.8" target-width="528.2002" target-height="1354.7" node-id="295" fill-rule="nonzero" fill="#ffc3bd" d="m9075.8,2593.1l-208,138.9l51.9,94.8l24.6,46.1l27,51.5l28.4,55.3l28.5,57.3l27.7,57.5l13.3,28.6l12.4,27.5l11.9,27.3l10.7,25.6l10,25.1l8.4,22.8l5.2,15.1l7.9,26.2l3.1,12.6l2.2,10.8l1.3,9.4l0.6,7.3l0,6.1l-0.5,5.1l-0.9,4.2l-11.9,43.3l-41.9,169.5l-16.2,62.5l-8.6,31.2l-8.7,30.7l-9.2,30.2l-9.3,28.9l-6.6,19l-13.2,35.2l-7,17l-13.9,30.1l2.2,6.2l3.4,7.6l4,7.9l4.9,8.8l5.3,8.8l12.2,18.1l6.4,8.7l13.2,15.8l12.7,12.5l4.2,3.3l7.1,4.3l10.1,-8l10.2,-8.7l10.3,-9.6l10.5,-10.3l20.2,-21.6l20.4,-24.2l13.2,-16.8l13.2,-17.7l13.1,-18.7l12.7,-18.9l12.6,-19.5l12.4,-20.1l23.9,-41.1l11.5,-21l11.2,-21.2l21.2,-42.4l10.1,-21.4l18.8,-42l8.8,-20.9l15.9,-40.2l13.9,-38.8l11.6,-36.3l8.9,-32.7l3.7,-15.9l2.8,-14.3l2.1,-12.8l1.2,-9.9l0.7,-8.7l0.2,-7.7l-0.2,-6.7l-1,-13.3l-1.5,-13.8l-2.1,-14.5l-2.7,-15.1l-3,-14.8l-7.5,-31.1l-10.8,-37.6l-7.1,-22l-7.8,-22.6l-16.9,-45.2l-18.9,-46.1l-20.3,-46.2l-16,-34.4l-16.4,-34l-16.7,-33.6l-16.7,-32.6l-16.8,-32l-32.7,-59.9l-30.5,-53.8l-38.4,-65.2l-19.3,-31.7l-16.9,-27.1z"/>
  <path id="svg_87" target-y="3833.6" target-x="8830.1" target-width="254.40039" target-height="181.5" node-id="297" fill-rule="nonzero" fill="#b55b52" d="m8995,3846.3l-164.9,-12.7l86.5,181.5l10.3,0l17,-1.1l10.8,-1.3l15.4,-2.7l17,-4.1l8.6,-2.7l8.9,-3.2l8.6,-3.7l17.1,-9l12,-8.4l5.8,-4.8l5.5,-5.1l5.2,-5.5l4.8,-6l4.6,-6.5l4.2,-7l3,-5.7l2.7,-6l2.4,-6.5l4,-14.3l-89.5,-65.2z"/>
  <path id="svg_88" target-y="2981.2" target-x="6391.8" target-width="3418.1006" target-height="1953.2" node-id="299" fill-rule="nonzero" fill="#22c55e" d="m9809.9,4731.8l-107.2,202.6l-3310.9,-1750.6l106.9,-202.6l3311.2,1750.6z"/>
  <path id="svg_89" target-y="2576.4" target-x="6605.9" target-width="3418.1" target-height="1953.1001" node-id="301" fill-rule="nonzero" fill="#22c55e" d="m10024,4327.4l-107,202.1l-3311.1,-1750.6l106.9,-202.5l3311.2,1751z"/>
  <path id="svg_90" target-y="2778.3" target-x="6499.8" target-width="3417" target-height="1955.4998" node-id="303" fill-rule="nonzero" fill="#429cfd" d="m6607,2778.3l-107.2,202.3l3309.8,1753.2l107.2,-202.3l-3309.8,-1753.2z"/>
  <g id="svg_91" node-id="392">
   <path id="svg_92" target-y="2778.3" target-x="6499.8" target-width="3417" target-height="1955.4998" node-id="307" group-id="7" fill-rule="nonzero" fill-opacity="0.2" fill="#000000" d="m6607,2778.3l-107.2,202.3l3309.8,1753.2l107.2,-202.3l-3309.8,-1753.2z"/>
  </g>
  <path id="svg_93" target-y="2576.6" target-x="6152.7" target-width="560.0996" target-height="607.19995" node-id="310" fill-rule="nonzero" fill="#429cfd" d="m6249.1,2603.2l-96.4,182.3l239.1,398.3l321,-607.2l-463.7,26.6z"/>
  <g id="svg_94" node-id="393">
   <path id="svg_95" target-y="2576.6" target-x="6152.7" target-width="560.0996" target-height="607.19995" node-id="314" group-id="8" fill-rule="nonzero" fill-opacity="0.8" fill="#ffffff" d="m6249.1,2603.2l-96.4,182.3l239.1,398.3l321,-607.2l-463.7,26.6z"/>
  </g>
  <path id="svg_96" target-y="2603.2" target-x="6050.3" target-width="198.8003" target-height="182.30005" node-id="317" fill-rule="nonzero" fill="#22c55e" d="m6050.3,2614.7l102.4,170.8l96.4,-182.3l-198.8,11.5z"/>
  <path id="svg_97" target-y="3833.6" target-x="8697.5" target-width="219.7998" target-height="243.2998" node-id="319" fill-rule="nonzero" fill="#b55b52" d="m8697.5,3916.2l86.2,160.7l133.6,-61.8l-86.5,-181.5l-133.3,82.6z"/>
  <path id="svg_98" target-y="2473.6" target-x="8784.2" target-width="592.2998" target-height="785.5" node-id="321" fill-rule="nonzero" fill="#263238" d="m9026.3,2476.7l6.8,1.3l6.9,2l7.1,2.5l7.1,3.2l7.4,4l13.8,9l7.1,5.4l7.2,6l7.4,6.7l8.6,8.4l8.8,9.3l8.9,10.1l9,11l17.3,22.7l8.7,12.4l8.7,13.1l11.2,17.5l11.2,18.3l22,38.6l21.2,40.2l15.2,30.7l14.7,30.9l14.2,30.9l13.3,30.3l24.5,58.5l21,53.2l17.2,45.7l12.9,35.6l10.8,31.3l-342.9,193.6l-34.6,-63.3l-23.3,-43.8l-41.1,-79.9l-29.7,-60.3l-15.1,-31.5l-29.4,-63.8l-14.2,-32.2l-13.4,-31.6l-16.8,-41.8l-7.5,-20l-9,-26.4l-6.7,-24.9l-2.6,-11.8l-2,-11.5l-1.7,-12.1l-1.3,-11.6l-0.7,-11.2l-0.3,-10.9l0.1,-10.4l0.6,-10.2l1,-10.4l1.4,-10.1l1.9,-9.7l2.2,-9.3l5.5,-17.6l3.4,-8.7l3.8,-8.3l4.1,-8l4.4,-7.7l4.7,-7.3l5.1,-7l6.7,-8.2l7,-7.6l7.5,-7.2l7.9,-6.8l8.4,-6.2l8.7,-5.8l9,-5.3l9.5,-4.8l10,-4.4l10.3,-3.9l10.5,-3.2l10.8,-2.8l11.2,-2.3l11.6,-1.7l12,-1.3l11.9,-0.6l12.1,-0.1l12.6,0.5l12.9,1l13.3,1.6z"/>
  <g id="svg_99" node-id="394">
   <path id="svg_100" target-y="2660.6" target-x="8891.6" target-width="141.7002" target-height="515.19995" node-id="325" group-id="9" fill-rule="nonzero" fill-opacity="0.2" fill="#000000" d="m8931.4,2670.6l-4.5,-3.8l-7.3,-4.5l-2.9,-1.2l-2.7,-0.5l-2.8,0l-2.5,0.5l-4.6,2.8l-2.1,2.4l-2,3.3l-1.9,4.2l-1.8,5.3l-1.5,6.5l-1.4,8.6l-1.1,10.2l-0.6,12l-0.1,25.4l0.6,14.8l1.4,22.6l2.1,25l2.7,25.6l6.9,54.8l8.6,56.9l9.4,56.9l14.7,80.6l26.3,51.6l23.6,45.2l10.2,-20l4.7,-10.6l4.3,-10.9l4,-11.3l4.4,-14.1l4,-14.6l3.4,-15l3,-15.4l2.4,-15.5l2,-15.7l1.4,-15.9l1,-16.1l0.5,-16.2l0.1,-16.2l-0.4,-16.2l-0.9,-16.3l-3,-32.4l-2.2,-16l-2.6,-15.8l-3,-15.8l-3.4,-15.4l-3.8,-15l-4.2,-14.8l-4.6,-14.6l-5,-14.2l-5.3,-13.6l-5.6,-13l-6.2,-13l-6.5,-12.2l-6.7,-11.5l-6.9,-10.8l-12.3,-16.5l-6.3,-7.4l-6.4,-6.9l-6.6,-6.3z"/>
  </g>
  <path id="svg_101" target-y="2432" target-x="7966.1" target-width="1061.1997" target-height="1545" node-id="328" fill-rule="nonzero" fill="#263238" d="m8059.7,2485.7l-7.9,23l-6.3,20.1l-6.5,22.8l-8.1,30.6l-5.2,21.5l-5.6,24.7l-6,28.3l-5.6,28.4l-5.7,31.6l-5.7,35.1l-5.2,35.3l-5,38.4l-4.9,42l-6,64.1l-2.6,34.9l-2.4,36.8l-1.8,36.2l-1.5,37.9l-1,39.9l-0.6,41.8l0,41.1l0.5,42.9l1.1,44.8l1.7,46.7l1.8,36.6l2.2,37.8l2.7,39l3.2,40.2l3.7,41.4l4,40.5l4.6,41.6l5.2,42.8l5.8,44.1l6.4,45.2l6.7,44.3l7.3,45.4l8.1,46.6l8.8,47.8l9.5,49.1l923.9,0l0.3,-27.2l-1.7,-49.2l-12.1,-227l-2.6,-56.6l-2.4,-61.7l-1.9,-63.3l-1.5,-67.8l-0.5,-45.7l-0.1,-96.5l0.6,-49l1,-50.3l1.6,-51.8l2,-51.6l2.8,-52.7l3.3,-53.7l2.9,-40.2l7.1,-81.5l4.2,-41.4l4.6,-41.2l5.1,-41.4l5.5,-41.6l6.1,-41.8l6.6,-41.7l7.1,-41.8l7.7,-41.7l8.3,-41.9l-38.4,-7.1l-38.4,-6.4l-38.5,-5.8l-38.6,-5.2l-38.7,-4.6l-38.8,-4l-38.8,-3.3l-38.9,-2.7l-39.2,-2l-39.2,-1.6l-39.2,-1.1l-39.2,-0.7l-39.2,-0.2l-39.3,0.2l-39.2,0.7l-39.2,1.1l-39.2,1.6l-39.2,2l-27,2.9l-26.8,3.4l-26.9,3.7l-26.7,4.2l-26.7,4.6l-26.7,5l-26.5,5.5l-26.4,5.8l-26.4,6.3l-26.3,6.7z"/>
  <path id="svg_102" target-y="2635.7" target-x="7081.2" target-width="1120.5996" target-height="879.1001" node-id="330" fill-rule="nonzero" fill="#ffc3bd" d="m8201.8,2727.8l-232.7,-92.1l-28.6,57.1l-20.1,39.4l-24,46.4l-27.1,51.4l-29.5,54.7l-31.1,56.1l-31.7,55.4l-16.1,27.1l-31.4,51.1l-15.1,23.3l-15.1,22.4l-14,19.9l-9.6,12.8l-17.1,21.4l-8.7,9.7l-7.8,7.9l-7,6.4l-5.7,4.6l-5.1,3.5l-8.5,4.1l-19.7,6.7l-22.7,8.1l-193.5,72.5l-61.1,21.6l-30.2,10.1l-30.1,9.6l-48.5,14.1l-36.5,9.2l-17.9,3.9l-16.9,3.2l-15.9,2.5l-8.1,12.7l-8.7,16.9l-4.2,9.4l-4.1,10l-3.9,10.2l-3.5,10.2l-5.6,19.7l-2,9.4l-1.2,8.1l-0.3,5.3l0.4,8.3l12.3,3.7l13,3.4l13.7,3.1l14.5,2.8l29.2,4.3l15.5,1.7l16.1,1.4l21.3,1.3l22,0.8l22.9,0.2l22.7,-0.2l23.3,-0.7l23.6,-1.2l47.4,-3.6l23.8,-2.5l23.8,-2.8l47.1,-6.5l23.4,-3.8l45.1,-8.4l22.3,-4.6l42.1,-9.6l39.9,-10.6l36.5,-11l31.9,-11.2l15.2,-5.9l13.3,-5.8l11.7,-5.6l8.8,-4.6l7.6,-4.4l11.9,-8.1l10.4,-8.3l10.6,-9.2l10.8,-9.9l21.5,-21.7l21.5,-23.8l10.9,-12.9l14.1,-17.4l14.2,-18.3l14.2,-19.2l27.8,-39.7l27.3,-41.7l26.6,-42.9l19.4,-32.7l18.7,-32.8l18.3,-32.8l17.3,-32.2l16.9,-32l30.9,-60.9l27,-55.7l32,-68.6l15.1,-33.8l12.8,-29.4z"/>
  <g id="svg_103" node-id="395">
   <path id="svg_104" target-y="2550.5" target-x="7967.7" target-width="270.5" target-height="735.5" node-id="334" group-id="10" fill-rule="nonzero" fill-opacity="0.2" fill="#000000" d="m8227.9,2665.6l-4.9,-10.6l-5.2,-10l-5.4,-9.4l-11.5,-16.9l-6.4,-8.1l-6.6,-7.5l-6.8,-6.9l-6.9,-6.4l-7.2,-5.8l-7.5,-5.5l-7.7,-5l-7.9,-4.5l-7.9,-4l-8.2,-3.4l-8.4,-3.1l-8.4,-2.5l-8.6,-2.1l-8.8,-1.5l-8.8,-1.1l-8.9,-0.6l-9,-0.2l-18.2,1.2l-9.2,1.3l-10.3,39.8l-5.9,25.3l-5.6,25.4l-5.7,28.7l-6.1,32.4l-5.5,32.5l-5.4,35.8l-5.4,39.4l-3.6,29.2l-3.4,31.2l-3.2,33l-2.9,35.1l-2.5,34.4l-2.1,36.4l-1.8,38.2l-1.3,40.2l-0.8,39.6l-0.3,41.4l0.3,43.3l0.8,45.3l54.9,26.4l14.8,-26.4l16.4,-30.5l32.2,-62l24.7,-50.3l13,-27.3l12.8,-27.9l12.8,-29l12.6,-29.4l12.1,-29.8l7.8,-20.1l14.6,-39.8l6.7,-19.9l6.2,-19.6l5.7,-19.2l5.3,-19.3l4.6,-18.6l3.9,-17.9l2.5,-13.7l3.7,-25.6l1.2,-12l0.7,-12.3l0.2,-11.6l-0.3,-10.9l-0.8,-10.3l-1.2,-8.4l-1.4,-7.8l-1.9,-7.4l-2.2,-6.9l-2.5,-6.5z"/>
  </g>
  <path id="svg_105" target-y="2480.5" target-x="7683.8" target-width="588.4004" target-height="732.19995" node-id="337" fill-rule="nonzero" fill="#263238" d="m8264.6,2603.7l2.2,6.6l1.9,7l1.4,7.4l1.1,8l0.7,8.4l0.3,10.3l-0.2,10.9l-0.8,11.5l-1.4,12.3l-1.7,11.9l-2.3,12.4l-2.7,13l-3.3,13.5l-4.8,17.7l-5.5,18.4l-6.2,19l-6.7,18.8l-7.2,19.3l-15.9,39l-17.2,39.2l-13.7,29.1l-14,28.7l-14.3,28.4l-14.2,27.2l-28.1,51.5l-26.1,45.8l-22.7,38.5l-18,29.6l-16.1,25.6l-345.3,-188.4l11.4,-30.2l11.8,-30l12.3,-29.9l12.7,-29.6l13.1,-29.4l13.6,-29.2l14.1,-29l14.5,-28.8l14.9,-28.5l15.3,-28.4l15.8,-28l16.3,-27.9l16.6,-27.6l17.1,-27.4l9.5,-13.6l9.6,-12.7l9.7,-11.9l9.9,-11.1l9.9,-10.4l10.6,-10.2l10.7,-9.3l10.6,-8.6l10.6,-7.9l10.7,-7.1l11.2,-6.8l11.2,-6.1l11,-5.3l11,-4.6l10.9,-3.9l9.5,-2.9l9.3,-2.4l9.2,-2l9.2,-1.4l17.9,-1.6l9.1,-0.1l8.9,0.4l8.8,0.8l8.7,1.2l16.9,3.9l16.4,5.7l8,3.5l15.4,8.4l7.5,5l7.1,5.2l13.6,12l6.5,6.7l6.4,7.3l6.1,7.7l10.9,16.3l5.1,8.9l4.8,9.4l4.6,10.1l4.3,10.7z"/>
  <path id="svg_106" target-y="3371.5" target-x="6925.9" target-width="258.3999" target-height="233.6001" node-id="339" fill-rule="nonzero" fill="#ffc3bd" d="m7131.3,3371.5l-205.4,43.5l104.1,190.1l14.3,-7.4l27.8,-15.8l13.5,-8.5l13.3,-8.8l13,-9.3l12.8,-9.6l24.7,-20.2l11.9,-10.6l11.6,-11l11.4,-11.4l-53,-121z"/>
  <path id="svg_107" target-y="3416" target-x="6828.9" target-width="201.1001" target-height="190.1001" node-id="341" fill-rule="nonzero" fill="#ffc3bd" d="m6828.9,3458.1l82,113.6l119.1,34.4l-104.1,-190.1l-97,42.1z"/>
  <path id="svg_108" target-y="1863" target-x="8242.9" target-width="32.89941" target-height="49.69995" node-id="343" fill-rule="nonzero" fill="#263238" d="m8275.7,1889.1l-0.3,4.6l-0.9,4.1l-1.4,3.6l-1.9,3.3l-2.2,2.8l-2.5,2.1l-2.1,1.4l-2.1,0.9l-4.5,0.8l-4.3,-1l-2,-1.2l-3.4,-3.4l-1.5,-2.3l-2.2,-5.3l-1.3,-6.2l-0.2,-3.3l0.1,-3.5l0.6,-4.6l1,-4.1l3.3,-6.9l2.1,-2.8l4.4,-3.4l2,-1l2.2,-0.5l2.3,-0.2l2.2,0.2l2.1,0.7l2,1.2l1.8,1.5l1.6,1.9l1.5,2.3l1.2,2.5l1,2.8l0.8,3.1l0.7,6.4l-0.1,3.5z"/>
  <path id="svg_109" target-y="1890.3" target-x="8214.7" target-width="73.29981" target-height="132.69995" node-id="345" fill-rule="nonzero" fill="#ed847e" d="m8288,1890.3l-7.5,15.4l-7.9,15.2l-8.4,14.8l-8.9,14.6l-9.4,14.2l-9.9,13.9l-10.4,13.6l-10.9,13.2l4.7,3.5l10,5.9l5.3,2.4l5.4,2l5.7,1.7l5.7,1.1l5.7,0.8l5.8,0.4l5.9,-0.1l5.7,-0.5l5.8,-0.9l7.6,-131.2z"/>
  <path id="svg_110" target-y="1789.7" target-x="8250.8" target-width="73.40039" target-height="51.5" node-id="347" fill-rule="nonzero" fill="#263238" d="m8258,1841.1l-3.5,-1.5l-2.3,-2.2l-0.8,-1.4l-0.5,-1.5l-0.1,-1.6l0.6,-3.1l4.4,-6.8l4,-5.1l4.4,-4.7l4.7,-4.3l5.1,-4l5.4,-3.6l5.7,-3.1l5.8,-2.7l6.1,-2.1l6.2,-1.8l6.3,-1.2l6.5,-0.7l1.6,0.2l2.8,1.3l2.6,2.8l0.8,1.8l0.4,2.2l-0.1,1.6l-0.5,1.5l-0.8,1.4l-1,1.3l-4.2,2.2l-6.6,0.9l-9.7,2.4l-4.7,1.8l-4.5,2.2l-4.4,2.5l-4.2,2.8l-7.5,6.6l-3.4,3.7l-3.1,3.9l-3.8,5.7l-1.2,1.1l-3.1,1.4l-1.7,0.2l-1.7,-0.1z"/>
  <path id="svg_111" target-y="1613.2" target-x="8246.6" target-width="499.30078" target-height="674.90015" node-id="349" fill-rule="nonzero" fill="#ffc3bd" d="m8743.9,1877.1l-11.8,100.6l-3.8,29.3l-2.9,19.2l-3.1,18.1l-3.3,17.1l-2.9,12.9l-6.3,24.3l-7.5,22.9l-4.3,11.1l-4.7,10.8l-5,10.4l-5.5,10.3l-6,10l-6.5,9.8l-7.1,9.7l-7.4,9.3l-8.2,9.2l-8.8,9.2l-9.6,9.1l-9.4,8.1l-9.6,7.4l-9.5,6.7l-9.7,6l-9.8,5.5l-10.1,4.9l-10.2,4.4l-10.2,3.7l-10.2,3.2l-10.3,2.6l-10.5,2.1l-10.5,1.6l-10.4,1l-10.4,0.5l-10.4,0l-10.4,-0.5l-10.3,-1.1l-10.3,-1.4l-10.1,-2l-10.1,-2.5l-10,-2.9l-19.4,-7.2l-9.5,-4.2l-9.4,-4.7l-9.1,-5.1l-8.9,-5.5l-8.7,-5.9l-8.4,-6.3l-8.3,-6.7l-7.9,-7.1l-7.6,-7.4l-7.2,-7.7l-7,-8.2l-6.7,-8.5l-6.2,-8.8l-5.9,-9.1l-5.5,-9.4l-5.1,-9.7l-4.7,-10.2l-4.3,-10.2l-3.7,-10.6l-3.3,-10.8l-2.9,-11.2l-2.4,-11.5l-3.9,-26.5l-1.6,-14l-1.2,-14.5l-1.4,-29.2l0.1,-30.6l0.6,-15.3l0.9,-15.5l1.4,-15.6l1.7,-15.7l2.2,-15.6l2.6,-15.6l3,-15.4l3.4,-15.5l3.9,-15.3l4.4,-15l4.8,-14.8l5.2,-14.5l5.8,-14.4l6.2,-13.9l6.8,-13.5l7.1,-13.1l6.2,-10.3l6.5,-9.9l6.8,-9.6l14.6,-18l7.9,-8.5l8.2,-8l8.6,-7.7l8.9,-7.2l9.3,-6.7l8,-5.3l8.2,-4.9l8.5,-4.5l8.9,-4.2l18.6,-7.4l19,-5.7l9.6,-2.2l9.7,-1.8l9.8,-1.4l19.7,-1.6l9.9,-0.1l9.9,0.3l9.8,0.6l19.7,2.7l9.8,1.9l19.1,5.1l9.4,3.2l9.2,3.5l9.1,3.9l17.5,9l8.5,5l8.3,5.4l8.1,5.8l7.9,6.1l14.8,13.2l7,7l6.6,7.3l6.4,7.6l6,7.9l10.9,16.4l5,8.5l4.6,8.7l4.3,9l3.9,9.2l3.4,9.3l3.1,9.4l2.7,9.6l2.2,9.6l3.3,19.5l1,9.8l0.6,9.8l0.2,9.9l-0.2,9.9l-0.7,9.9l-1.1,9.9z"/>
  <path id="svg_112" target-y="1491.6" target-x="8097.7" target-width="827.5" target-height="612.4" node-id="351" fill-rule="nonzero" fill="#263238" d="m8401.2,1910.3l-4.9,0.6l-5.2,0.1l-5.2,-0.6l-5.6,-1.3l-5.3,-1.7l-5.3,-2.4l-5.5,-2.9l-5.7,-3.5l-10.5,-8.2l-5.3,-4.9l-10.1,-11l-9.2,-12.5l-4.4,-7l-4,-7.1l-3.7,-7.4l-3.4,-7.8l-3.2,-8.1l-2.7,-8.2l-2.3,-8.4l-1.8,-8.7l-1.5,-9l-1,-9l-0.4,-9.1l0.1,-9.3l0.6,-9.5l1.2,-9.3l1.9,-9.5l2.5,-9.6l3.1,-9.7l3,-7.5l7.3,-15.1l4.5,-7.6l5,-7.7l-3.3,-1.4l-3.8,-1l-4.2,-0.6l-4.9,-0.3l-6.3,0.2l-7.1,0.6l-7.9,1.1l-12,2.2l-40.8,8.9l-14.3,2.8l-14.4,2.3l-9.6,1.2l-9.4,0.7l-9.2,0.3l-13.7,-0.6l-6.5,-0.9l-6.4,-1.3l-6.2,-1.7l-5.9,-2.2l-5.7,-2.7l-5.5,-3.2l-8,-6.2l-3.8,-3.7l-3.6,-4.2l-3.4,-4.7l-3.5,-5.6l-2.6,-5.3l-2,-5l-1.3,-4.8l-0.9,-4.9l-0.3,-4.8l0.1,-4.7l0.6,-4.5l2.5,-9l1.7,-4.3l2.2,-4.4l3.2,-5.6l7.9,-11l6.7,-8l28.7,-31.5l6.2,-7.7l3.8,-5.4l3.3,-5.3l2.7,-5.3l1.7,-4.1l1.2,-4.2l1.4,-8.4l0,-4.2l-0.6,-4.3l-1,-4.5l-1.7,-4.6l6.3,1.5l5.2,1.8l4.2,1.9l3.5,2l3.3,2.6l2.6,2.6l2,2.8l1.5,3l1,3.2l0.7,3.3l0,7.2l-0.7,4.9l-1.2,5.1l-1.8,5.4l-3.2,8l-3.8,8.2l-12.2,23.7l-3.4,7l-1.9,4.7l-1.4,4.1l-0.8,3.7l-0.4,2.8l0.2,2.5l1.3,4l1.2,1.6l1.7,1.4l2.4,1.2l3.2,0.9l3.1,0.5l8.8,0l6.2,-0.6l6.4,-1.1l6.5,-1.6l6.6,-2.1l6.8,-2.6l8.7,-4l9,-4.7l9.3,-5.4l18.2,-11.9l66,-47.9l9.6,-6.6l19.2,-11.8l9.7,-5.3l9.7,-4.6l9.6,-3.9l7.3,-2.5l7.3,-2l7.3,-1.5l7.2,-1l7.3,-0.5l7.2,0.2l7.3,0.8l7.3,1.5l5.7,1.6l5.7,2.1l5.8,2.6l5.9,3.2l16,10.1l10.1,5.6l10.1,5l10.1,4.4l10.4,3.9l10.4,3.4l10.3,2.8l10.4,2.4l10.5,2l10.4,1.6l20.6,2.1l13.8,0.7l13.5,0.3l13.2,-0.1l19.8,-0.8l70.6,-5l14.7,-0.5l9.6,0.1l8.6,0.6l7.7,1l5.8,1.2l5.1,1.5l8.7,4.2l3.1,2.2l5.2,5.2l2.1,3.2l1.9,3.5l1.4,3.6l1.1,4.1l0.8,4.6l0.4,5.2l0.1,6l-0.4,6.9l-1.1,8l-1.7,9.2l-2.5,10.5l-6.4,21.2l-9.9,26.8l7.9,-1.3l7.6,-0.9l7.5,-0.4l7.2,0l7,0.4l7.1,0.9l6.9,1.3l6.6,1.6l6.4,2l6.2,2.3l7.6,3.5l7.2,3.9l6.8,4.4l6.4,4.9l6.1,5.4l5.6,5.7l5.1,6.1l4.7,6.4l4.2,6.8l3.6,7.1l3.2,7.3l2.6,7.7l2.1,7.8l1.4,7.9l0.9,8.2l0.3,8.5l-0.3,6.7l-0.7,6.7l-1.1,6.9l-1.6,6.9l-2,7.1l-2.5,6.8l-2.9,6.8l-3.4,6.9l-4,7l-4.5,7l-4.8,6.6l-5.4,6.6l-6,6.6l-6.6,6.6l-25.6,22.7l-16,14.6l-14,13.4l-13.6,13.8l-11.8,12.6l-10.1,11.4l-9.8,11.7l-8.3,10.6l-6.9,9.5l-6.7,9.9l-10.1,16.7l-4.3,8.1l-6.3,13.7l-3.9,9.6l-8,21.8l-1.7,3.9l-3.9,6.6l-2.3,2.9l-2.8,2.6l-3.2,2.4l-3.5,1.9l-4.4,1.9l-5.3,1.8l-12.2,2.7l-8.2,1.3l-12.9,1.4l-16.7,1.4l-12.1,0.1l-6.9,-0.6l-7.5,-1l-9.8,-1.8l-10.4,-2.5l-11.2,-3.3l-11,-3.7l-11.4,-4.4l-11.9,-5.1l-11.6,-5.5l-11.7,-6.1l-11.8,-6.8l-11.5,-7.2l-11.4,-7.7l-11.1,-8.2l-10.8,-8.6l-10.2,-9.1l-9.8,-9.6l-7.1,-7.4l-12.8,-15.6l-5.8,-8l-5.4,-8.4l-4.9,-8.5l-4.4,-8.6l-3.8,-8.9l-2.7,-7.2l-2.3,-7.3l-1.9,-7.4l-1.4,-7.6l-1.1,-7.6z"/>
  <path id="svg_113" target-y="1858.5" target-x="8341.8" target-width="156.2998" target-height="172.59998" node-id="353" fill-rule="nonzero" fill="#ffc3bd" d="m8489.6,1954.8l-4.4,8.4l-4.9,8l-5.4,7.6l-5.9,7.3l-6.3,6.9l-6.9,6.5l-7.3,6l-7.6,5.5l-7.9,5l-8.3,4.4l-8.5,3.9l-8.8,3.3l-6.1,1.8l-10.8,1.7l-4.9,0l-5,-0.5l-4.6,-1l-4.4,-1.4l-4,-1.8l-3.8,-2.3l-6.8,-5.7l-3,-3.5l-5,-7.7l-2,-4.3l-1.8,-4.6l-2.4,-9.7l-0.7,-5.3l-0.3,-10.8l1.2,-11.3l1.2,-5.9l4.3,-14.3l2.9,-7.7l3.3,-7.6l3.7,-7.5l4.3,-7.5l4.6,-7.3l4.9,-7l5.4,-6.7l5.8,-6.3l6,-5.7l6.4,-5.1l5,-3.5l5.2,-3l5.3,-2.5l5.5,-2.1l5.6,-1.6l5.7,-1l5.9,-0.4l6.1,0.2l5.3,0.8l5.2,1.1l10,3.7l4.8,2.4l4.6,2.8l4.3,3.2l4,3.5l3.7,3.9l3.3,4.1l3.1,4.4l2.6,4.7l2.3,4.9l1.8,5l1.4,5.1l1,5.3l0.5,5.3l0.1,5.3l-0.3,5.4l-2,10.5l-1.7,5l-2.1,4.9l-2.4,4.8z"/>
  <path id="svg_114" target-y="3977" target-x="8376.7" target-width="1180.7002" target-height="4156.7" node-id="355" fill-rule="nonzero" fill="#429cfd" d="m8376.7,3977l39.3,259.4l51.9,334l41.5,260.3l44.3,269.8l22.5,133l22.3,128.7l21.8,122.2l21.1,113.6l10.3,53.6l19.4,96.7l18.2,84l35.1,155.4l59.3,254.5l69.6,293.3l75.2,313.8l113.5,468.9l152.3,623.8l47,191.7l316.1,0l-65,-394.3l-65.4,-402.3l-73.5,-458.6l-48.4,-307.2l-22.7,-147.3l-40.9,-270.9l-25.1,-174.6l-13.3,-97.7l-5.3,-41.3l-61.6,-500.7l-163.8,-1361.1l-595.7,-0.7z"/>
  <g id="svg_115" node-id="396">
   <path id="svg_116" target-y="3977" target-x="8376.7" target-width="1180.7002" target-height="4156.7" node-id="359" group-id="11" fill-rule="nonzero" fill-opacity="0.2" fill="#ffffff" d="m8376.7,3977l39.3,259.4l51.9,334l41.5,260.3l44.3,269.8l22.5,133l22.3,128.7l21.8,122.2l21.1,113.6l10.3,53.6l19.4,96.7l18.2,84l35.1,155.4l59.3,254.5l69.6,293.3l75.2,313.8l113.5,468.9l152.3,623.8l47,191.7l316.1,0l-65,-394.3l-65.4,-402.3l-73.5,-458.6l-48.4,-307.2l-22.7,-147.3l-40.9,-270.9l-25.1,-174.6l-13.3,-97.7l-5.3,-41.3l-61.6,-500.7l-163.8,-1361.1l-595.7,-0.7z"/>
  </g>
  <g id="svg_117" node-id="397">
   <path id="svg_118" target-y="4413.4" target-x="8484.4" target-width="217.7998" target-height="1228" node-id="364" group-id="12" fill-rule="nonzero" fill-opacity="0.2" fill="#000000" d="m8609.4,4438.1l-9.2,-11.5l-4.2,-4.1l-3.9,-3.1l-3.6,-2.4l-3.4,-1.7l-3.4,-1.1l-6.2,-0.8l-3.1,0.4l-3,0.8l-2.6,0l-4,2.1l-3.8,2.6l-3.6,3.2l-7,8.3l-8.8,14.8l-3.6,7.1l-3.1,7.3l-7.3,19.4l-9.5,30.7l-5.7,21.7l-8.8,40.2l-5.8,30.6l-4.8,28.2l-6.6,43.3l40.7,252.7l42.4,255.6l21.2,124.1l20.9,119.2l20.2,112.2l19.4,103.5l5.4,-19.9l7.6,-33.5l5.3,-26.5l4.7,-26.6l4.1,-26.6l7.1,-55.1l3.2,-29.7l5.6,-62.2l2.4,-32.1l3.8,-66.3l1.4,-33.8l1.9,-68.9l0.5,-34.7l0,-69.9l-1.2,-69.5l-1.1,-34.7l-1.4,-34.2l-1.7,-33.7l-2.1,-33.7l-2.4,-32.7l-2.7,-31.9l-3.1,-31.9l-3.3,-30.6l-3.6,-29.3l-4.1,-29.3l-4.4,-27.6l-4.6,-26l-7.8,-38.1l-4,-17.4l-4.2,-16.2l-4.6,-16.6l-4.8,-15.2l-4.8,-13.8l-4.8,-12.6l-4.4,-10.5l-8.9,-17.8l-8.8,-14.2z"/>
  </g>
  <path id="svg_119" target-y="3977" target-x="8037.3" target-width="618.5" target-height="4156" node-id="367" fill-rule="nonzero" fill="#429cfd" d="m8049.4,3977l-4.1,254.6l-4.1,329.6l-2.4,258.2l-1.4,269.2l-0.1,133.5l0.2,129.9l1.4,184.1l1.7,111.8l1.1,51.2l2.7,94.4l1.8,42.3l2.4,48.8l6.5,107.5l3.9,58.3l9.5,127.9l17.1,211.7l13,150.2l13.9,155.3l29.5,316.4l30.1,309.1l28.4,283.6l24.5,239.8l30.2,288.6l292.3,0l5.7,-797.6l4,-459.2l3,-307.6l3.4,-288l3.6,-250.4l1.9,-105.5l3.3,-142.1l5.8,-179.5l4.9,-131.4l5.7,-138.6l12.7,-288.7l20.6,-426.3l12.9,-251.8l20.8,-389.3l-606.4,0z"/>
  <g id="svg_120" node-id="398">
   <path id="svg_121" target-y="3977" target-x="8037.3" target-width="618.5" target-height="4156" node-id="371" group-id="13" fill-rule="nonzero" fill-opacity="0.2" fill="#ffffff" d="m8049.4,3977l-4.1,254.6l-4.1,329.6l-2.4,258.2l-1.4,269.2l-0.1,133.5l0.2,129.9l1.4,184.1l1.7,111.8l1.1,51.2l2.7,94.4l1.8,42.3l2.4,48.8l6.5,107.5l3.9,58.3l9.5,127.9l17.1,211.7l13,150.2l13.9,155.3l29.5,316.4l30.1,309.1l28.4,283.6l24.5,239.8l30.2,288.6l292.3,0l5.7,-797.6l4,-459.2l3,-307.6l3.4,-288l3.6,-250.4l1.9,-105.5l3.3,-142.1l5.8,-179.5l4.9,-131.4l5.7,-138.6l12.7,-288.7l20.6,-426.3l12.9,-251.8l20.8,-389.3l-606.4,0z"/>
  </g>
  <path id="svg_122" target-y="8031.7" target-x="8215.6" target-width="351.7002" target-height="107.19971" node-id="374" fill-rule="nonzero" fill="#263238" d="m8566.8,8043.5l0.5,30.2l-0.5,65.2l-337,0l-14.2,-107.2l351.2,11.8z"/>
  <path id="svg_123" target-y="8037.6" target-x="9195.2" target-width="378" target-height="101.29981" node-id="376" fill-rule="nonzero" fill="#263238" d="m9557.4,8050.5l0.3,0.5l0.8,3.3l4.5,24.2l10.2,60.4l-347.4,0l-30.6,-101.3l362.2,12.9z"/>
  <path id="svg_124" target-y="8332.9" target-x="9252.8" target-width="89.90039" target-height="43.7998" node-id="378" fill-rule="nonzero" fill="#429cfd" d="m9294.6,8376.5l-4.5,0.2l-4.3,-0.2l-4.3,-0.6l-4.3,-0.9l-4.2,-1.3l-4,-1.6l-3.9,-2l-3.7,-2.3l-4.2,-4.4l-2.9,-5.3l-1,-3l-0.5,-2.9l0.9,-10.6l1.1,-2.2l1.3,-1.9l1.7,-1.6l1.9,-1.3l2.8,-1.1l3.4,-0.6l4,0l4,0.3l4.3,0.8l19.5,6.2l7.4,3.1l7.2,3.4l7,3.5l16.2,9.1l5.5,3.5l0.8,0.9l0.6,1l0.3,1.2l-0.1,1.2l-0.3,1.1l-1.6,1.7l-1.1,0.5l-11.2,2.4l-11.2,1.9l-11.3,1.2l-11.3,0.6zm-25.7,-35.6l-2.7,-0.3l-2.7,0.3l-1.1,0.9l-0.9,1.1l-0.5,1.3l0.1,6.9l0.7,2.7l1.2,2.5l1.6,2.2l1.9,2l6.6,2.7l6.6,2.1l6.8,1.5l6.9,1l6.9,0.4l6.9,-0.3l7,-0.8l6.8,-1.3l6.8,-2l-13.9,-7.8l-14.5,-6.5l-7.4,-2.7l-7.6,-2.3l-7.7,-2l-7.8,-1.6z"/>
  <path id="svg_125" target-y="8293.1" target-x="9287.7" target-width="54.2002" target-height="77.5" node-id="380" fill-rule="nonzero" fill="#429cfd" d="m9338.6,8370.6l-1.9,0l-4.6,-2.8l-5.5,-4.1l-5.4,-4.7l-5.9,-5.6l-5.6,-6l-5.4,-6.4l-5,-6.7l-4.2,-6.5l-4.5,-8.8l-1.5,-4l-1,-4.1l-0.4,-3.7l0.3,-3.2l0.6,-2.2l1,-2l1.3,-1.9l1.7,-1.5l1.8,-1.3l2.1,-1l2.2,-0.5l2.2,-0.2l3.2,-0.3l3,0.2l3.1,0.7l2.9,1.1l5.3,3.5l3.1,2.9l2.9,3.5l2.6,4.1l2.4,4.3l2.1,4.7l1.9,4.9l2.3,7.5l1.9,7.5l1.6,7.4l1,6.4l1.3,10.4l0.4,4.7l-1.1,3l-2.2,0.7zm-34.8,-70.6l-0.8,0l-2.4,0.2l-1.5,0.6l-1.1,0.9l-0.6,0.9l-0.5,1.6l-0.1,2.3l0.4,2.8l4.5,10.6l6.5,10l10,12.3l11,10.9l5.4,4.3l-0.7,-7.3l-3.1,-14.3l-2.4,-6.9l-2.8,-6.7l-3.3,-6.5l-3.9,-6.2l-4.3,-6l-1.6,-1.2l-1.7,-0.9l-1.9,-0.7l-1.9,-0.4l-2,-0.1l-2,0.2l0.8,-0.4z"/>
  <path id="svg_126" target-y="8332.9" target-x="8207.5" target-width="107.09961" target-height="43.69922" node-id="382" fill-rule="nonzero" fill="#429cfd" d="m8257.1,8376.5l-11.1,0.1l-5.4,-0.7l-5.4,-1.1l-5.2,-1.6l-10.1,-4.4l-4.7,-2.9l-2.5,-2.7l-2.1,-3l-1.5,-3.3l-1.1,-3.5l-0.5,-3.6l0.1,-3.7l0.8,-4.3l2.4,-3.8l1.6,-1.5l1.8,-1.2l2.3,-1l2.7,-0.8l6.7,-0.6l9.8,0.9l5.8,1.1l8.6,2.2l9.1,2.8l9.1,3.3l8.8,3.4l8.6,3.6l7.5,3.4l19.2,9.2l1.1,0.8l0.8,1l0.3,1.2l0,1.3l-0.4,1.2l-0.7,1l-1,0.7l-1.2,0.4l-21.6,3.7l-10.8,1.2l-10.9,0.8l-10.9,0.4zm-31.3,-35.6l-2.6,0.1l-2.5,0.5l-2.5,0.9l-1,0.8l-0.9,1l-0.5,1.3l-0.2,1.3l-0.1,2.5l0.3,2.3l0.7,2.3l1,2.2l1.4,2l1.7,1.7l2.7,2l8,3.5l5.5,1.3l11.5,1.4l14.9,0.2l10.3,-0.6l11.5,-1.2l12.8,-1.9l-8.5,-4.3l-8.7,-3.9l-17.8,-6.6l-18.3,-5.2l-18.7,-3.6z"/>
  <path id="svg_127" target-y="8292.8" target-x="8250.1" target-width="65.20019" target-height="77.90039" node-id="384" fill-rule="nonzero" fill="#429cfd" d="m8310.6,8370.6l-1.7,0l-5.4,-2.8l-6.5,-4l-6.5,-4.7l-6.9,-5.6l-6.7,-6l-6.5,-6.4l-6.1,-6.6l-5.1,-6.5l-3.1,-4.5l-2.5,-4.3l-1.8,-3.9l-1.1,-3.1l-0.6,-2.8l0.1,-6.5l0.4,-1.5l0.9,-1.7l1.1,-1.5l1.6,-1.4l2.1,-1.3l2.3,-1l2.9,-0.8l3.6,-0.6l4.2,-0.3l8.3,1.2l4,1.4l3.7,2l3.4,2.6l3.4,3.2l3.2,3.7l2.9,4.1l2.6,4.4l2.3,4.6l2.1,4.8l2.7,7.4l5.2,20.2l1.6,9.8l0.6,4.4l0,1l-0.3,1l-0.6,0.9l-0.8,0.6l-1.5,0.6l-1.5,-0.1zm-42.2,-70.6l-1.6,0l-2.5,0.1l-1.7,0.4l-1.1,0.4l-1.5,1l-0.7,1l-0.6,1.8l0,2.3l0.7,2.9l1.5,3.6l1.9,3.4l2.5,3.8l3.2,4.2l5.1,6.1l6.1,6.3l6.4,6.1l6.6,5.6l6.8,5.2l6.4,4.2l-1.1,-7.4l-1.6,-7.2l-2.2,-7.1l-2.7,-6.8l-3.3,-6.6l-3.7,-6.4l-4.2,-6l-4.8,-5.8l-3.2,-2l-3.4,-1.4l-3.6,-0.9l-3.7,-0.4l0,-0.4z"/>
 </g>
</svg>