<svg width="202" height="66" xmlns="http://www.w3.org/2000/svg" preserveAspectRatio="xMidYMid meet" version="1.0">

 <g>
  <title>Layer 1</title>
  <g id="svg_1" fill="#000000" transform="translate(0.000000,66.000000) scale(0.100000,-0.100000)">
   <path id="svg_2" d="m865,594c-34,-37 -34,-96 0,-129c24,-25 59,-32 81,-17c38,25 45,105 13,146c-27,34 -63,34 -94,0z"/>
   <path id="svg_3" d="m1050,600c-15,-15 -20,-33 -20,-70c0,-57 24,-90 65,-90c53,0 85,63 65,125c-18,56 -72,73 -110,35z"/>
   <path id="svg_4" d="m731,444c-37,-47 -24,-126 25,-144c55,-21 102,30 89,98c-13,69 -76,95 -114,46z"/>
   <path id="svg_5" d="m1181,444c-53,-68 -3,-174 69,-144c47,19 63,77 35,129c-25,49 -72,55 -104,15z"/>
   <path id="svg_6" d="m973,380c-11,-5 -66,-54 -122,-109c-76,-76 -102,-109 -106,-135c-10,-48 17,-100 63,-122c32,-15 45,-15 118,-4c65,9 98,9 158,0c60,-10 82,-10 106,0c47,19 70,55 70,109c0,44 -3,49 -68,111c-37,36 -80,82 -96,102c-15,20 -41,41 -58,47c-36,13 -36,13 -65,1zm5,-207l-3,-118l-55,3c-67,5 -100,30 -100,78c0,46 27,74 78,81c40,5 42,7 42,39c0,28 4,34 20,34c20,0 21,-5 18,-117zm82,-13c0,-57 1,-60 25,-60c22,0 24,4 27,58c3,50 6,57 26,60c21,3 22,1 22,-77l0,-81l-57,0c-81,0 -87,6 -91,89c-4,71 -4,71 22,71c25,0 26,-2 26,-60z"/>
   <path id="svg_7" d="m874,156c-12,-31 1,-51 34,-54c31,-3 32,-2 32,32c0,33 -2,36 -30,36c-17,0 -33,-6 -36,-14z"/>
   <path id="svg_8" d="m1773,343l-73,-4l0,-128c0,-71 -3,-143 -6,-160c-6,-28 -4,-31 19,-31l26,0l3,138l3,137l138,3c114,2 137,5 137,18c0,8 -6,16 -12,19c-23,6 -161,11 -235,8z"/>
   <path id="svg_9" d="m0,179l0,-161l124,4c105,2 127,6 145,22c28,26 29,88 1,116c-19,19 -19,22 -5,36c8,9 15,33 15,54c0,30 -6,43 -31,64c-29,25 -37,26 -140,26l-109,0l0,-161zm207,85c12,-33 -11,-49 -76,-52l-61,-3l0,36l0,35l65,0c52,0 67,-4 72,-16zm-3,-130c35,-34 8,-54 -71,-54l-63,0l0,35l0,35l59,0c41,0 65,-5 75,-16z"/>
   <path id="svg_10" d="m600,310c0,-27 3,-30 30,-30c27,0 30,3 30,30c0,27 -3,30 -30,30c-27,0 -30,-3 -30,-30z"/>
   <path id="svg_11" d="m1330,310c0,-18 7,-20 61,-20c52,0 60,-2 57,-17c-2,-14 -15,-19 -56,-21l-52,-3l0,-115l0,-114l138,0c94,0 142,4 150,12c8,8 12,48 12,115l0,103l-66,0c-56,0 -65,2 -60,16c3,9 6,18 6,20c0,2 32,4 70,4c63,0 70,2 70,20c0,19 -7,20 -165,20c-158,0 -165,-1 -165,-20zm258,-127c3,-22 1,-23 -92,-23l-96,0l0,25l0,26l93,-3c87,-3 92,-4 95,-25zm-2,-78c13,-32 -15,-45 -98,-45c-81,0 -98,9 -84,45c8,22 174,22 182,0z"/>
   <path id="svg_12" d="m1778,272c-22,-4 -24,-42 -3,-42c10,0 15,-10 15,-30l0,-31l98,3c95,3 97,4 100,28c2,14 10,29 18,33c17,10 18,37 2,38c-36,3 -215,4 -230,1zm162,-52c0,-5 -22,-10 -50,-10c-27,0 -50,5 -50,10c0,6 23,10 50,10c28,0 50,-4 50,-10z"/>
   <path id="svg_13" d="m330,230c0,-17 8,-19 78,-22c71,-3 77,-5 80,-25c3,-22 0,-23 -66,-23c-79,0 -105,-18 -105,-72c0,-54 29,-68 144,-68l99,0l0,95c0,129 -6,135 -135,135c-88,0 -95,-2 -95,-20zm160,-140c0,-28 -2,-30 -39,-30c-51,0 -71,8 -71,29c0,27 9,31 62,31c47,0 48,-1 48,-30z"/>
   <path id="svg_14" d="m600,135l0,-115l30,0l30,0l0,115l0,115l-30,0l-30,0l0,-115z"/>
   <path id="svg_15" d="m1770,126c0,-17 9,-27 30,-36c40,-17 38,-30 -5,-30c-29,0 -35,-4 -35,-21c0,-20 3,-21 53,-14c60,8 82,8 155,-1c49,-5 54,-4 50,12c-2,14 -15,20 -43,24l-40,5l38,23c22,14 37,31 37,43c0,18 -8,19 -120,19c-120,0 -120,0 -120,-24zm156,-21c-11,-8 -27,-15 -36,-15c-9,0 -25,7 -36,15c-17,13 -15,14 36,14c51,0 53,-1 36,-14z"/>
  </g>
  <path transform="rotate(-4.16994 186.609 31.3181)" stroke="#191919" id="svg_16" d="m183.94442,32.59695l-0.0638,-3.277l4.54734,0.24977l0.90947,3.74655" opacity="NaN" fill="#000"/>
 </g>
</svg>