<?xml version="1.0" standalone="no"?>
<!DOCTYPE svg PUBLIC "-//W3C//DTD SVG 20010904//EN"
 "http://www.w3.org/TR/2001/REC-SVG-20010904/DTD/svg10.dtd">
<svg version="1.0" xmlns="http://www.w3.org/2000/svg"
 width="740.000000pt" height="248.000000pt" viewBox="0 0 740.000000 248.000000"
 preserveAspectRatio="xMidYMid meet">

<g transform="translate(0.000000,248.000000) scale(0.100000,-0.100000)"
fill="#000000" stroke="none">
<path d="M1460 2360 c-204 -8 -247 -17 -365 -78 -46 -24 -98 -63 -150 -115
-54 -53 -103 -90 -150 -114 -373 -189 -594 -566 -572 -972 26 -480 362 -863
842 -962 87 -18 294 -15 390 5 253 55 487 208 634 416 66 94 90 141 130 254
107 302 65 635 -112 904 -30 44 -47 83 -51 115 -10 63 -40 149 -75 211 -19 34
-30 71 -33 112 -9 99 -60 175 -141 209 -50 21 -123 24 -347 15z m307 -109 c48
-22 71 -53 80 -107 6 -34 4 -37 -13 -29 -10 4 -30 10 -44 13 -22 4 -18 -2 27
-50 94 -101 147 -237 145 -378 -1 -71 -11 -121 -62 -305 -89 -325 -161 -664
-225 -1061 -6 -34 -37 -52 -150 -87 -205 -64 -453 -51 -642 33 l-70 31 -7 92
c-11 160 -18 828 -9 920 l8 88 66 3 c51 1 75 8 102 26 40 27 90 99 107 153 19
60 44 50 65 -28 40 -150 144 -225 311 -225 107 0 182 38 234 120 28 44 70 155
70 184 0 27 -29 44 -87 50 -32 4 -211 22 -398 41 -187 19 -359 38 -381 41
l-41 6 9 41 c5 23 13 46 19 52 16 16 111 8 162 -14 58 -25 57 -25 57 -7 0 7
-18 30 -39 49 -40 36 -94 54 -131 44 -28 -7 -25 7 16 69 66 99 163 173 284
215 55 20 94 24 260 29 107 4 204 7 215 8 11 1 39 -7 62 -17z m-991 -353 c-3
-18 -11 -49 -17 -70 -10 -39 -10 -39 -52 -33 -62 8 -72 -3 -70 -78 2 -90 20
-170 48 -211 23 -35 24 -36 13 -173 -11 -141 -4 -862 8 -915 9 -39 -8 -36 -68
15 -74 62 -172 189 -217 282 -181 369 -112 787 174 1071 59 59 168 144 184
144 2 0 1 -14 -3 -32z m1313 -375 c90 -179 112 -424 56 -637 -19 -72 -81 -207
-126 -273 -37 -55 -159 -185 -203 -216 l-29 -21 7 60 c9 77 68 378 112 569 33
144 146 575 151 575 2 0 16 -26 32 -57z"/>
<path d="M1400 1984 c-39 -17 -92 -63 -85 -75 3 -4 26 0 52 8 69 21 182 13
261 -19 36 -15 65 -22 68 -16 10 16 -82 96 -123 107 -54 15 -132 13 -173 -5z"/>
<path d="M1305 1249 c-34 -19 -72 -30 -118 -35 -75 -7 -81 -19 -26 -46 69 -36
159 -9 195 58 26 48 8 56 -51 23z"/>
<path d="M5857 2090 c-66 -17 -140 -61 -197 -119 -136 -137 -167 -340 -79
-513 34 -67 125 -155 193 -188 132 -62 269 -62 397 2 66 33 148 110 184 173
66 114 73 278 18 398 -44 93 -118 169 -211 215 -69 33 -83 37 -171 39 -53 1
-113 -2 -134 -7z m210 -145 c64 -19 136 -82 171 -149 36 -70 38 -188 4 -257
-111 -225 -428 -228 -536 -6 -33 68 -41 121 -26 190 20 101 109 199 204 226
48 14 127 12 183 -4z"/>
<path d="M3604 2080 c-141 -28 -217 -113 -218 -241 0 -77 20 -118 80 -165 39
-29 85 -46 257 -95 93 -26 127 -54 127 -102 0 -76 -74 -114 -202 -105 -57 5
-86 13 -152 47 -90 46 -91 46 -116 -28 -17 -51 -7 -64 75 -101 173 -79 383
-62 477 37 38 40 58 94 58 157 0 131 -54 180 -260 236 -142 39 -185 60 -199
100 -14 42 7 93 46 113 71 37 207 28 292 -19 24 -13 47 -22 51 -19 13 8 42
103 35 115 -12 19 -87 51 -154 66 -72 15 -134 16 -197 4z"/>
<path d="M4297 2080 c-146 -25 -239 -138 -221 -271 16 -118 67 -153 337 -230
93 -26 127 -54 127 -102 0 -69 -61 -107 -174 -107 -67 0 -167 31 -214 67 -18
14 -39 23 -46 20 -20 -8 -51 -97 -39 -116 15 -24 109 -69 183 -87 87 -22 217
-15 285 15 98 43 148 117 148 216 0 128 -62 182 -278 240 -155 42 -185 62
-185 126 0 52 34 84 104 100 67 15 172 -2 235 -37 24 -13 45 -24 48 -24 7 0
43 91 43 109 0 36 -173 93 -269 90 -20 -1 -57 -5 -84 -9z"/>
<path d="M2806 2065 c-3 -9 -6 -152 -6 -317 0 -262 -2 -303 -17 -328 -41 -70
-147 -66 -217 9 -17 17 -35 31 -42 31 -16 0 -74 -73 -74 -93 0 -8 21 -34 47
-56 119 -105 332 -90 405 30 42 68 49 128 46 445 l-3 289 -66 3 c-54 2 -68 0
-73 -13z"/>
<path d="M3110 1665 l0 -415 70 0 70 0 -2 413 -3 412 -67 3 -68 3 0 -416z"/>
<path d="M4788 2074 c-5 -4 -8 -191 -8 -416 l0 -408 223 0 c237 0 307 10 374
51 113 70 118 271 8 354 l-34 27 29 36 c50 63 60 162 24 233 -19 37 -86 93
-131 109 -42 14 -473 27 -485 14z m426 -138 c42 -18 66 -51 66 -94 0 -85 -54
-111 -227 -112 l-123 0 0 110 0 110 125 0 c85 0 136 -5 159 -14z m43 -349 c42
-22 63 -54 63 -97 0 -43 -20 -74 -63 -97 -26 -14 -61 -17 -177 -17 l-145 -1
-3 104 c-1 58 0 111 3 119 8 22 277 12 322 -11z"/>
<path d="M6510 1665 l0 -415 70 0 70 0 2 277 3 276 225 -274 225 -274 60 0 60
0 3 390 c1 215 0 400 -3 413 -5 21 -10 23 -73 20 l-67 -3 -5 -274 -5 -275 -50
60 c-28 32 -118 142 -200 243 -225 276 -198 251 -261 251 l-54 0 0 -415z"/>
<path d="M3780 1000 l0 -70 -177 -2 -178 -3 -3 -57 -3 -58 111 0 c122 0 123 0
95 -66 -27 -66 -85 -133 -155 -179 l-68 -46 21 -49 c12 -28 29 -50 37 -50 24
0 134 76 177 123 50 54 90 121 119 201 l23 61 0 -182 1 -183 60 0 60 0 0 172
c0 95 4 168 8 163 5 -6 17 -32 27 -60 23 -63 72 -139 122 -187 44 -42 142
-108 160 -108 7 0 24 22 38 49 l25 50 -71 47 c-73 48 -117 98 -150 169 -34 74
-33 75 86 75 l105 0 0 60 0 60 -172 2 -173 3 -3 68 -3 67 -59 0 -60 0 0 -70z"/>
<path d="M4777 1063 c-4 -3 -7 -55 -7 -115 l0 -108 -180 0 -180 0 0 -60 0 -60
180 0 180 0 0 -185 0 -185 -155 0 -155 0 0 -60 0 -60 375 0 375 0 0 60 0 59
-152 3 -153 3 -3 182 -2 183 182 2 183 3 3 57 3 58 -183 2 -183 3 -3 113 -3
112 -58 0 c-32 0 -61 -3 -64 -7z"/>
<path d="M5560 1020 l0 -50 -90 0 -90 0 0 -60 0 -60 90 0 90 0 0 -45 0 -44
-72 -3 -73 -3 0 -55 0 -55 70 -5 70 -5 3 -42 3 -43 -90 0 -91 0 0 -60 0 -60
90 0 90 0 0 -29 c0 -36 -34 -79 -77 -97 -32 -14 -33 -16 -33 -69 0 -61 7 -65
71 -43 81 27 144 104 155 190 l7 48 79 0 79 0 -3 58 -3 57 -77 3 -78 3 0 44 0
45 60 0 60 0 0 60 0 60 -60 0 -60 0 0 45 0 45 80 0 80 0 0 60 0 60 -79 0 -80
0 -3 48 -3 47 -57 3 -58 3 0 -51z"/>
<path d="M5880 610 l0 -420 60 0 60 0 0 65 c0 44 4 67 13 69 6 2 38 9 70 16
111 22 178 101 185 216 4 64 -10 107 -51 151 l-20 22 37 97 c25 67 36 112 36
150 l0 54 -195 0 -195 0 0 -420z m242 304 c4 -3 -10 -53 -30 -112 -28 -85 -32
-107 -21 -111 8 -2 29 -19 47 -37 75 -75 17 -204 -93 -204 l-25 0 0 228 c0
126 3 232 7 235 8 8 107 9 115 1z"/>
<path d="M3454 372 c-11 -7 -54 -144 -54 -171 0 -8 18 -11 62 -9 l62 3 22 87
c18 74 19 88 7 92 -21 8 -86 7 -99 -2z"/>
<path d="M3644 366 c-3 -8 4 -51 16 -95 l22 -81 60 0 61 0 -7 38 c-3 20 -14
62 -23 92 l-18 55 -53 3 c-39 2 -54 -1 -58 -12z"/>
<path d="M3884 367 c-5 -13 28 -145 41 -167 6 -10 107 -14 117 -4 6 6 -32 152
-45 172 -11 17 -106 16 -113 -1z"/>
<path d="M4125 368 c-2 -7 6 -49 18 -93 l23 -80 62 -3 c34 -2 62 0 62 4 0 19
-43 160 -52 172 -6 6 -32 12 -60 12 -30 0 -50 -5 -53 -12z"/>
</g>
</svg>
