<?xml version="1.0" standalone="no"?>
<!DOCTYPE svg PUBLIC "-//W3C//DTD SVG 20010904//EN"
 "http://www.w3.org/TR/2001/REC-SVG-20010904/DTD/svg10.dtd">
<svg version="1.0" xmlns="http://www.w3.org/2000/svg"
 width="658.000000pt" height="200.000000pt" viewBox="0 0 658.000000 200.000000"
 preserveAspectRatio="xMidYMid meet">

<g transform="translate(0.000000,200.000000) scale(0.100000,-0.100000)"
fill="#000000" stroke="none">
<path d="M903 1971 c-103 -51 -162 -132 -163 -220 0 -101 51 -180 148 -228 49
-24 68 -28 142 -27 76 0 93 4 160 36 41 19 92 38 112 42 21 4 40 11 43 17 4 5
-2 35 -13 67 -11 31 -18 69 -15 84 3 17 -4 50 -17 83 -60 148 -254 219 -397
146z"/>
<path d="M1530 1924 c-61 -26 -102 -65 -127 -121 -30 -65 -27 -106 12 -164 35
-53 83 -83 195 -120 l95 -31 15 23 c8 13 38 50 67 82 57 63 71 110 58 185 -19
117 -195 198 -315 146z"/>
<path d="M2114 1745 c-91 -20 -151 -51 -215 -112 -105 -100 -139 -230 -95
-362 15 -42 17 -71 13 -127 -5 -51 -3 -75 6 -82 6 -5 53 -10 102 -9 70 1 103
-4 148 -21 68 -26 174 -29 252 -8 196 52 336 240 304 409 -29 156 -155 276
-328 313 -80 17 -107 16 -187 -1z"/>
<path d="M360 1596 c-140 -31 -267 -129 -325 -251 -31 -64 -35 -81 -35 -154 0
-45 4 -89 9 -99 5 -9 19 -39 32 -66 97 -202 370 -301 608 -220 57 19 76 30
135 73 34 24 80 44 140 61 67 19 92 30 94 43 2 10 -12 49 -32 87 -29 54 -36
79 -36 124 0 63 -29 151 -71 212 -106 156 -319 234 -519 190z"/>
<path d="M1258 1501 c-26 -10 -70 -30 -99 -45 -29 -14 -80 -32 -112 -38 -33
-7 -61 -17 -64 -23 -2 -7 5 -33 17 -59 12 -30 20 -69 20 -107 0 -151 97 -276
253 -324 254 -77 529 140 463 366 -32 108 -108 187 -219 228 -74 27 -192 28
-259 2z"/>
<path d="M4452 1462 c-6 -15 -16 -45 -23 -67 -16 -50 -34 -65 -75 -65 -23 0
-34 -6 -39 -19 -9 -28 5 -51 30 -51 13 0 26 -4 29 -9 3 -5 -6 -41 -19 -82 -30
-86 -30 -91 -9 -146 l17 -43 64 0 c77 0 79 -2 67 -113 -8 -72 -12 -83 -32 -92
-18 -8 -22 -17 -20 -40 2 -19 8 -29 16 -27 8 1 16 -7 19 -18 5 -18 13 -20 91
-20 l85 0 -7 128 c-4 70 -8 136 -9 147 -2 18 5 20 83 25 l85 5 0 60 0 60 -82
1 c-46 0 -85 2 -87 5 -3 2 -6 27 -8 54 l-3 50 -50 0 -50 0 -5 -50 c-3 -27 -9
-56 -13 -62 -9 -14 -71 -18 -65 -5 26 58 71 142 80 150 9 7 50 7 135 0 67 -6
129 -8 138 -4 13 4 15 18 13 63 l-3 58 -50 0 c-27 0 -76 -3 -107 -7 -52 -6
-58 -5 -58 12 0 10 5 22 10 25 23 14 7 37 -37 56 -27 11 -60 26 -75 33 -25 13
-27 13 -36 -12z"/>
<path d="M3570 1438 c-25 -41 -25 -40 5 -72 14 -15 25 -31 25 -37 0 -5 -41 -9
-94 -9 -103 0 -120 -8 -114 -57 l3 -28 147 -10 c80 -5 150 -13 153 -17 6 -5
-12 -38 -41 -77 -2 -2 -22 13 -44 33 -22 20 -44 36 -48 36 -16 0 -42 -36 -42
-58 0 -20 -5 -22 -65 -22 -55 0 -65 -3 -65 -17 -1 -10 -1 -94 -1 -188 l0 -170
191 -3 c157 -2 192 -5 196 -17 8 -20 144 -22 144 -2 3 80 -2 371 -6 382 -4 10
-20 15 -45 15 -45 0 -59 -18 -59 -79 0 -48 -8 -51 -41 -15 l-24 25 43 40 c46
45 52 68 22 87 -34 21 -22 32 35 32 l55 0 0 66 0 66 -95 -4 c-99 -4 -107 0
-80 36 8 11 15 25 15 31 0 10 -121 65 -143 65 -4 0 -16 -15 -27 -32z m20 -394
c0 -7 -14 -35 -31 -62 -26 -42 -29 -54 -20 -71 17 -31 56 -27 83 9 12 17 27
30 34 30 7 0 27 -18 44 -40 29 -37 70 -54 70 -30 0 6 5 10 11 10 6 0 9 -14 7
-32 -2 -22 -8 -32 -18 -31 -50 6 -243 44 -252 49 -11 7 -6 136 8 202 l7 33 28
-27 c16 -15 29 -33 29 -40z"/>
<path d="M6060 1423 c-91 -19 -201 -42 -245 -52 l-80 -17 0 -39 0 -40 172 -3
172 -2 -6 -83 c-10 -133 -10 -133 -74 -128 -30 1 -56 5 -58 7 -2 2 2 23 9 46
25 90 26 90 -70 105 -46 7 -90 11 -96 9 -6 -2 -14 -31 -17 -64 -3 -34 -8 -66
-12 -73 -5 -8 -29 -10 -76 -7 -80 6 -79 7 -79 -97 l0 -74 68 -3 67 -3 -4 -92
c-4 -102 -6 -98 73 -105 26 -3 31 1 37 27 4 17 13 48 19 70 6 22 15 54 18 70
7 29 10 30 85 39 42 5 80 6 83 3 3 -3 1 -63 -5 -133 -5 -71 -8 -130 -6 -132 5
-6 206 -4 212 2 3 3 0 42 -6 87 -6 45 -11 106 -11 136 l0 53 69 0 c93 0 101 4
101 51 0 45 2 44 -105 56 l-80 8 -10 108 c-11 116 -9 122 35 129 24 3 25 5 22
73 -4 83 -9 105 -25 104 -7 0 -86 -16 -177 -36z"/>
<path d="M5130 1428 c0 -14 -70 -231 -76 -238 -3 -2 -41 -7 -86 -10 -62 -4
-83 -9 -92 -22 -21 -33 4 -52 75 -58 61 -5 64 -6 63 -30 -1 -14 -24 -98 -53
-186 -28 -89 -51 -166 -51 -172 0 -13 59 -44 70 -37 8 5 38 61 152 285 26 52
53 100 60 107 13 12 33 11 273 -16 39 -5 73 -6 78 -4 4 2 7 41 7 85 l0 81
-145 -7 c-80 -4 -145 -4 -145 0 0 4 16 36 35 71 19 35 35 71 35 81 0 12 -24
26 -83 50 -88 34 -117 39 -117 20z"/>
<path d="M2981 1361 c-11 -7 -13 -34 -7 -142 3 -74 9 -203 12 -287 l7 -153 51
3 51 3 5 60 5 60 36 -3 c43 -3 47 4 41 71 -4 46 -5 47 -39 47 -28 0 -34 3 -29
16 3 9 6 22 6 29 0 8 13 15 33 17 30 3 32 6 35 44 3 40 2 42 -32 48 -31 6 -36
11 -36 35 0 38 4 40 58 27 54 -14 52 -2 38 -196 -12 -175 -14 -186 -41 -198
-32 -15 -35 -67 -5 -77 11 -3 20 -11 20 -16 0 -5 39 -9 86 -9 l86 0 -6 263
c-4 144 -9 284 -13 311 l-5 49 -104 -6 c-64 -4 -105 -3 -109 3 -8 12 -125 13
-144 1z"/>
<path d="M4055 1328 c-2 -7 -6 -35 -7 -63 l-3 -50 -45 -5 c-43 -5 -45 -7 -48
-39 -4 -40 5 -47 60 -49 72 -3 78 -37 8 -44 l-35 -3 -12 -105 c-11 -95 -11
-106 4 -117 29 -22 54 -15 66 17 6 17 14 30 18 30 10 0 19 -41 19 -92 0 -42 3
-48 24 -54 13 -3 35 -4 47 -2 22 3 24 9 27 63 1 33 5 71 8 84 5 22 6 22 24 6
11 -10 25 -15 32 -12 19 7 68 101 60 114 -4 6 -27 18 -52 26 -39 13 -45 19
-45 43 0 28 2 29 44 29 44 0 45 1 53 40 14 65 5 83 -44 87 l-41 3 -1 50 -1 50
-78 3 c-56 2 -79 -1 -82 -10z"/>
<path d="M2495 1040 c-45 -28 -83 -53 -139 -93 -18 -13 -18 -15 13 -83 18 -38
38 -80 44 -93 14 -27 79 -82 120 -99 44 -19 129 -15 184 9 149 64 186 206 84
323 -33 38 -111 66 -186 66 -60 0 -77 -4 -120 -30z"/>
<path d="M5232 978 c-12 -18 -18 -37 -14 -43 19 -30 226 -275 233 -275 11 0
123 119 127 134 3 14 -289 216 -312 216 -8 0 -23 -14 -34 -32z"/>
<path d="M1777 965 c-136 -37 -255 -132 -310 -245 -27 -54 -33 -79 -35 -151
-6 -132 34 -227 132 -316 81 -74 208 -133 288 -133 24 0 147 -63 176 -91 37
-34 54 -24 102 60 34 60 60 91 107 128 133 105 195 241 172 385 -26 168 -156
309 -338 364 -58 17 -229 17 -294 -1z"/>
<path d="M4345 940 c-6 -10 -21 -82 -31 -157 -6 -39 -5 -43 21 -53 14 -6 30
-8 35 -5 8 5 105 164 105 173 0 3 -113 52 -121 52 -2 0 -6 -5 -9 -10z"/>
<path d="M4698 919 c-12 -6 -18 -22 -18 -42 1 -46 25 -166 37 -178 6 -6 24 -2
51 11 22 11 46 20 51 20 6 0 14 8 19 18 7 13 -3 36 -45 100 -56 83 -64 89 -95
71z"/>
<path d="M1020 899 c-94 -18 -167 -62 -211 -125 -70 -102 -58 -216 31 -305 70
-70 126 -93 225 -93 70 0 89 4 147 32 39 19 80 48 98 70 34 41 60 116 60 172
0 20 7 59 15 86 8 27 15 54 15 59 0 6 -25 16 -55 23 -30 7 -88 28 -128 47 -82
38 -132 46 -197 34z"/>
<path d="M5574 605 c-4 -8 -1 -22 6 -30 15 -18 8 -119 -10 -139 -18 -23 -1
-46 35 -46 38 0 65 24 47 42 -15 15 -16 140 -1 155 18 18 1 33 -37 33 -22 0
-37 -6 -40 -15z"/>
<path d="M2996 523 c-7 -92 -3 -123 19 -123 26 0 36 27 29 82 -6 49 -5 52 9
32 9 -11 23 -40 33 -62 11 -29 24 -44 40 -48 44 -11 54 9 54 113 l0 94 -27 -3
c-23 -2 -28 -7 -25 -28 4 -31 -6 -70 -17 -70 -4 0 -15 21 -23 48 -14 43 -18
47 -50 50 l-35 3 -7 -88z"/>
<path d="M3232 519 c-17 -51 -28 -99 -25 -106 8 -20 31 -15 44 10 24 45 62 50
81 10 15 -30 27 -36 46 -25 9 7 5 30 -20 103 -32 90 -34 94 -65 97 l-32 3 -29
-92z m76 -7 c2 -7 -3 -12 -12 -12 -9 0 -16 7 -16 16 0 17 22 14 28 -4z"/>
<path d="M3432 587 c-32 -34 -31 -125 1 -155 34 -32 109 -31 142 3 29 28 34
89 10 134 -17 34 -33 41 -89 41 -32 0 -48 -6 -64 -23z m116 -74 l-3 -48 -40 0
-40 0 -3 48 -3 47 46 0 46 0 -3 -47z"/>
<path d="M3770 601 c-24 -7 -25 -9 -25 -96 l0 -90 62 -3 c56 -3 66 0 88 22 20
20 25 35 25 74 0 82 -58 119 -150 93z m97 -87 c-5 -50 -15 -62 -50 -59 -19 1
-22 8 -25 53 l-3 52 42 0 42 0 -6 -46z"/>
<path d="M3956 585 c-10 -15 -16 -46 -16 -84 0 -72 19 -91 90 -91 67 0 94 31
91 103 -3 73 -27 97 -97 97 -44 0 -54 -4 -68 -25z m114 -75 l0 -50 -39 0 c-38
0 -39 1 -43 43 -3 23 -3 45 -1 50 2 4 22 7 44 7 l39 0 0 -50z"/>
<path d="M4146 588 c-3 -13 -6 -57 -6 -99 0 -62 3 -78 16 -83 27 -10 44 13 44
60 0 24 3 44 8 44 4 0 14 -21 22 -47 12 -36 23 -50 42 -57 48 -17 59 4 56 108
-3 90 -3 91 -28 91 -24 0 -25 -2 -22 -65 l3 -65 -33 65 c-29 57 -37 65 -64 68
-26 3 -33 -1 -38 -20z"/>
<path d="M4354 595 c-3 -6 -4 -50 -2 -96 l3 -84 75 0 74 0 2 38 c3 40 -22 77
-51 77 -24 0 -30 -29 -9 -45 27 -20 5 -42 -25 -26 -17 9 -21 21 -21 56 l0 45
51 0 c47 0 50 2 47 23 -3 20 -8 22 -71 23 -45 1 -70 -3 -73 -11z"/>
<path d="M4680 601 c-24 -7 -25 -9 -25 -96 l0 -90 66 -3 c62 -3 68 -1 88 24
36 46 21 150 -24 168 -21 8 -72 6 -105 -3z m100 -91 l0 -50 -40 0 -40 0 0 50
0 50 40 0 40 0 0 -50z"/>
<path d="M4907 603 c-2 -4 -17 -48 -32 -96 -19 -58 -25 -91 -18 -98 14 -14 39
-2 51 27 16 34 59 33 68 -1 6 -26 40 -43 55 -28 5 5 -6 50 -24 103 -32 91 -35
95 -64 98 -17 2 -33 -1 -36 -5z m52 -105 c1 -5 -6 -8 -14 -8 -15 0 -21 31 -8
44 7 6 20 -17 22 -36z"/>
<path d="M5179 603 c-5 -29 4 -190 11 -197 12 -13 40 12 40 35 0 26 15 24 34
-6 10 -16 26 -25 41 -25 33 0 31 12 -5 53 -16 19 -30 38 -30 43 0 4 12 25 27
46 18 27 23 42 16 49 -13 13 -48 -3 -57 -26 -9 -24 -26 -18 -26 10 0 20 -5 25
-25 25 -14 0 -26 -3 -26 -7z"/>
<path d="M5411 588 c-38 -103 -54 -169 -43 -180 10 -10 19 -5 42 21 35 38 59
37 78 -2 14 -30 39 -36 49 -11 3 9 -8 55 -24 102 -29 83 -32 87 -62 90 -25 3
-33 -1 -40 -20z m49 -79 c0 -5 -7 -9 -15 -9 -15 0 -20 12 -9 23 8 8 24 -1 24
-14z"/>
</g>
</svg>
