<?xml version="1.0" standalone="no"?>
<!DOCTYPE svg PUBLIC "-//W3C//DTD SVG 20010904//EN"
 "http://www.w3.org/TR/2001/REC-SVG-20010904/DTD/svg10.dtd">
<svg version="1.0" xmlns="http://www.w3.org/2000/svg"
 width="561.000000pt" height="140.000000pt" viewBox="0 0 561.000000 140.000000"
 preserveAspectRatio="xMidYMid meet">

<g transform="translate(0.000000,140.000000) scale(0.100000,-0.100000)"
fill="#000000" stroke="none">
<path d="M2990 1384 c-30 -7 -90 -15 -132 -19 l-78 -7 0 -169 0 -169 350 0
350 0 0 175 0 175 -165 0 -165 0 0 -30 0 -29 128 -3 127 -3 0 -40 0 -40 -122
-3 -123 -3 0 -28 0 -29 123 1 122 2 0 -45 0 -45 -277 -3 -278 -2 0 51 0 52
120 -6 120 -7 0 33 0 32 -120 -3 -120 -3 0 44 c0 54 4 57 113 58 45 1 91 4
103 7 l20 7 -20 30 -21 30 -55 -11z"/>
<path d="M5186 1346 c-21 -72 -89 -202 -124 -239 l-27 -28 25 -19 c14 -11 30
-20 35 -20 6 0 26 25 45 55 38 59 46 65 54 37 3 -9 22 -41 41 -71 28 -42 33
-56 23 -63 -31 -21 -108 -57 -165 -78 l-62 -22 17 -34 c17 -37 19 -38 56 -24
23 8 27 6 32 -14 3 -13 4 -96 2 -185 l-3 -161 38 0 c37 0 37 0 37 40 l0 40
115 0 115 0 0 -35 c0 -33 2 -35 35 -35 l35 0 0 168 c0 92 4 173 8 180 7 10 15
10 37 2 34 -13 46 -3 48 40 2 31 0 32 -68 54 -98 32 -159 64 -147 79 5 7 23
30 40 52 32 41 122 194 122 207 0 5 -67 8 -150 8 -164 0 -165 0 -130 58 25 41
25 39 -7 44 -16 3 -35 8 -45 12 -13 6 -19 -3 -32 -48z m229 -173 c-14 -27 -39
-64 -56 -83 l-29 -35 -21 25 c-12 14 -34 51 -50 82 l-29 58 105 0 106 0 -26
-47z m6 -321 c-50 -1 -133 -1 -183 0 l-93 3 50 27 c28 15 65 37 84 50 l34 24
99 -50 100 -51 -91 -3z m19 -147 l0 -85 -115 0 -115 0 0 85 0 85 115 0 115 0
0 -85z"/>
<path d="M380 1382 c-30 -6 -39 -15 -62 -62 -15 -30 -28 -60 -28 -66 0 -7 29
-31 65 -54 36 -23 65 -46 65 -51 0 -5 -90 -240 -201 -522 -111 -281 -205 -522
-210 -534 l-9 -23 180 0 c146 0 181 3 194 15 8 9 40 94 71 190 61 187 81 226
134 262 60 41 127 54 303 61 91 4 169 9 171 12 4 4 31 68 94 228 4 9 -45 12
-226 12 -127 0 -231 4 -231 8 0 5 7 29 16 55 19 55 68 102 121 116 21 5 164 9
318 9 315 1 289 -6 324 86 11 28 37 97 59 154 l40 102 -301 0 c-166 0 -426 2
-577 4 -151 3 -291 2 -310 -2z"/>
<path d="M4831 1281 c-33 -92 -73 -163 -111 -199 -20 -19 -21 -24 -10 -57 10
-31 16 -36 34 -31 11 3 48 9 80 13 l59 6 -34 -64 c-19 -35 -52 -82 -74 -105
-40 -39 -41 -41 -27 -73 11 -29 17 -32 40 -28 15 3 73 14 130 24 l102 17 0 35
0 34 -42 -6 c-24 -3 -62 -9 -85 -13 l-43 -7 81 139 c44 77 89 151 99 165 l19
27 -38 25 -38 26 -28 -70 -28 -69 -59 0 c-58 0 -58 0 -45 23 8 12 39 70 70
129 l56 107 -39 20 -38 20 -31 -88z"/>
<path d="M3750 925 l0 -425 40 0 40 0 0 395 0 395 330 0 330 0 0 -343 c0 -253
-3 -346 -12 -355 -7 -7 -33 -12 -59 -12 l-48 0 17 -40 c9 -22 22 -40 28 -40
35 0 121 23 134 36 13 12 16 75 20 414 l5 400 -412 0 -413 0 0 -425z"/>
<path d="M1740 1304 l0 -39 230 3 230 4 0 -150 c0 -238 28 -382 93 -478 61
-91 160 -146 224 -123 24 8 37 23 57 68 14 32 26 66 26 75 0 8 -18 25 -39 36
l-39 19 -12 -50 c-7 -28 -19 -53 -28 -57 -44 -16 -132 77 -172 184 -22 61 -38
174 -24 174 5 0 51 -34 103 -76 l93 -75 29 33 c15 18 28 35 28 38 0 3 -45 35
-101 72 l-101 67 91 92 c51 51 88 96 84 99 -4 3 -21 18 -38 33 l-31 28 -28
-43 c-42 -64 -127 -168 -138 -168 -6 0 -8 51 -5 130 l5 130 -201 0 c-111 0
-231 3 -268 7 l-68 6 0 -39z"/>
<path d="M4086 1209 c-2 -8 -14 -53 -26 -101 -13 -49 -26 -88 -31 -88 -4 0
-28 36 -53 80 -26 44 -48 80 -51 80 -4 0 -55 -21 -63 -26 -2 -1 16 -31 41 -67
24 -36 54 -85 67 -110 l24 -45 -24 -53 c-14 -30 -46 -86 -72 -126 l-47 -72 25
-16 c14 -9 31 -14 38 -12 6 3 32 41 56 86 70 127 64 123 94 63 14 -29 30 -52
34 -52 4 1 19 11 34 23 l27 22 -43 69 -43 69 33 94 c19 52 41 107 49 123 20
39 19 47 -7 53 -13 2 -31 8 -40 12 -12 4 -19 2 -22 -6z"/>
<path d="M4345 1110 c-16 -60 -32 -107 -37 -104 -5 3 -22 33 -39 67 -17 34
-32 63 -33 64 -1 1 -18 -5 -37 -14 l-36 -16 48 -79 c27 -44 51 -89 54 -99 8
-25 -34 -102 -100 -182 l-52 -63 38 -22 38 -22 63 95 62 96 33 -66 c18 -36 35
-65 37 -65 2 0 20 7 39 15 l35 15 -49 87 c-27 49 -49 95 -49 103 0 13 62 191
84 242 6 13 -2 21 -32 37 l-39 20 -28 -109z"/>
<path d="M2780 792 c0 -152 -3 -192 -15 -209 -14 -20 -14 -25 6 -56 l22 -33
51 34 c28 19 75 46 104 59 49 23 53 27 47 52 -4 14 -8 28 -11 30 -2 2 -30 -8
-63 -23 -32 -14 -61 -26 -65 -26 -3 0 -6 81 -6 180 l0 180 -35 0 -35 0 0 -188z"/>
<path d="M2935 960 c-19 -20 -18 -22 18 -58 l37 -37 22 23 22 22 -34 35 c-19
19 -37 35 -40 35 -4 0 -15 -9 -25 -20z"/>
<path d="M3080 799 c0 -106 -4 -188 -10 -200 -9 -15 -6 -26 16 -54 l26 -35 30
21 c16 12 62 34 101 49 74 28 87 43 65 73 -13 17 -17 17 -81 -8 -37 -14 -70
-25 -72 -25 -3 0 -5 81 -5 180 l0 180 -35 0 -35 0 0 -181z"/>
<path d="M3217 962 c-10 -10 -17 -21 -17 -24 0 -4 18 -21 41 -39 l41 -32 21
22 22 22 -40 35 c-47 39 -47 40 -68 16z"/>
<path d="M3376 863 c7 -130 27 -234 52 -276 19 -33 75 -77 98 -77 20 0 52 38
78 94 l24 51 -36 20 -37 21 -15 -41 c-20 -51 -40 -51 -65 0 -15 32 -20 67 -23
172 -4 124 -5 132 -26 137 -56 15 -56 15 -50 -101z"/>
<path d="M2912 817 l-21 -23 50 -43 c42 -36 52 -41 65 -30 37 31 35 44 -15 82
-27 21 -50 37 -53 37 -2 0 -14 -10 -26 -23z"/>
<path d="M3209 814 l-24 -25 25 -20 c14 -11 37 -28 51 -39 l26 -19 23 24 c13
14 22 26 19 28 -2 1 -25 19 -50 39 l-46 37 -24 -25z"/>
<path d="M4985 683 c-22 -8 -87 -25 -143 -38 -57 -13 -106 -25 -108 -28 -9 -8
30 -77 40 -73 6 2 68 23 139 47 129 43 136 49 119 90 -6 15 -11 15 -47 2z"/>
<path d="M1910 135 c0 -50 4 -85 10 -85 6 0 10 16 10 35 0 33 2 35 35 35 19 0
35 5 35 10 0 6 -16 10 -35 10 -32 0 -35 2 -35 30 0 28 2 30 40 30 22 0 40 5
40 10 0 6 -22 10 -50 10 l-50 0 0 -85z"/>
<path d="M2180 135 l0 -85 50 0 c28 0 50 5 50 10 0 6 -18 10 -40 10 -38 0 -40
2 -40 30 0 28 3 30 35 30 19 0 35 5 35 10 0 6 -16 10 -35 10 -31 0 -35 3 -35
25 0 22 4 25 35 25 19 0 35 5 35 10 0 6 -20 10 -45 10 l-45 0 0 -85z"/>
<path d="M2440 135 c0 -50 4 -85 10 -85 6 0 10 35 10 85 0 50 -4 85 -10 85 -6
0 -10 -35 -10 -85z"/>
<path d="M2646 204 c-9 -8 -16 -21 -16 -28 0 -15 32 -46 48 -46 18 0 42 -30
36 -45 -4 -10 -20 -15 -46 -15 -23 0 -37 -4 -33 -10 9 -15 58 -12 83 6 32 22
28 51 -10 70 -47 24 -57 34 -51 50 3 8 19 14 40 14 20 0 32 4 28 10 -10 16
-62 12 -79 -6z"/>
<path d="M2900 135 c0 -50 4 -85 10 -85 6 0 10 18 10 40 l0 40 50 0 50 0 0
-40 c0 -22 5 -40 10 -40 6 0 10 35 10 85 0 50 -4 85 -10 85 -5 0 -10 -16 -10
-35 l0 -35 -50 0 -50 0 0 35 c0 19 -4 35 -10 35 -6 0 -10 -35 -10 -85z"/>
<path d="M3210 155 c0 -52 4 -69 20 -85 24 -24 57 -26 88 -4 19 13 22 24 22
85 0 39 -4 69 -10 69 -6 0 -10 -28 -10 -63 0 -68 -10 -87 -47 -87 -30 0 -43
28 -43 94 0 31 -4 56 -10 56 -6 0 -10 -28 -10 -65z"/>
<path d="M3524 138 c21 -77 40 -106 51 -76 2 7 12 40 21 73 l17 60 16 -70 c22
-94 38 -92 68 9 13 43 21 81 18 84 -9 10 -21 -14 -35 -73 -7 -30 -16 -52 -20
-50 -4 2 -13 32 -20 65 -8 36 -18 60 -26 60 -11 0 -44 -89 -44 -120 0 -31 -19
6 -30 60 -8 36 -18 60 -26 60 -9 0 -7 -20 10 -82z"/>
<path d="M3900 183 c-7 -21 -21 -59 -31 -85 -15 -39 -16 -48 -5 -48 8 0 17 11
20 25 5 21 12 25 41 25 29 0 37 -5 45 -25 12 -32 34 -34 24 -2 -25 80 -54 142
-67 145 -10 2 -19 -10 -27 -35z m50 -50 c0 -7 -12 -13 -26 -13 -20 0 -25 4
-20 16 3 9 9 28 13 42 l6 27 13 -30 c7 -16 13 -36 14 -42z"/>
<path d="M4195 208 c-32 -17 -45 -39 -45 -79 0 -51 37 -81 94 -77 40 3 41 4
44 46 3 39 1 42 -22 42 -14 0 -28 -4 -31 -10 -3 -5 3 -10 14 -10 16 0 21 -6
21 -25 0 -22 -4 -25 -33 -25 -59 0 -86 58 -51 108 12 17 25 22 60 22 28 0 43
4 39 10 -8 13 -65 12 -90 -2z"/>
<path d="M4470 135 c0 -100 18 -115 22 -19 l3 66 42 -66 c23 -36 47 -66 53
-66 6 0 10 33 10 85 0 50 -4 85 -10 85 -6 0 -10 -29 -10 -67 l-1 -68 -42 67
c-23 37 -48 68 -54 68 -10 0 -13 -24 -13 -85z"/>
<path d="M4780 135 l0 -85 51 0 c31 0 48 4 44 10 -3 6 -22 10 -41 10 l-34 0 0
75 c0 43 -4 75 -10 75 -6 0 -10 -35 -10 -85z"/>
<path d="M5030 152 c0 -77 16 -102 63 -102 47 0 67 31 67 105 0 37 -4 65 -10
65 -5 0 -10 -25 -10 -56 0 -66 -13 -94 -43 -94 -37 0 -47 19 -47 87 0 35 -4
63 -10 63 -6 0 -10 -29 -10 -68z"/>
<path d="M5363 209 c-44 -23 -54 -97 -17 -133 75 -75 185 30 122 117 -16 22
-75 30 -105 16z m88 -25 c7 -9 13 -31 13 -49 0 -44 -19 -65 -59 -65 -40 0 -59
21 -59 65 0 44 19 65 59 65 18 0 39 -7 46 -16z"/>
</g>
</svg>
