<?xml version="1.0" standalone="no"?>
<!DOCTYPE svg PUBLIC "-//W3C//DTD SVG 20010904//EN"
 "http://www.w3.org/TR/2001/REC-SVG-20010904/DTD/svg10.dtd">
<svg version="1.0" xmlns="http://www.w3.org/2000/svg"
 width="1633.000000pt" height="280.000000pt" viewBox="0 0 1633.000000 280.000000"
 preserveAspectRatio="xMidYMid meet">

<g transform="translate(0.000000,280.000000) scale(0.100000,-0.100000)"
fill="#000000" stroke="none">
<path d="M1932 2758 c-7 -7 -12 -29 -12 -49 0 -20 -6 -42 -14 -48 -13 -11 -17
-26 -34 -131 l-7 -45 -675 -5 c-592 -5 -680 -7 -715 -22 -54 -22 -63 -53 -64
-223 -1 -101 -5 -146 -15 -160 -29 -43 -46 -214 -23 -233 10 -9 187 -13 678
-14 l664 -3 6 -125 c4 -77 3 -130 -4 -137 -7 -10 -165 -13 -728 -13 -716 0
-718 0 -724 -21 -4 -11 -5 -76 -3 -144 2 -103 0 -126 -13 -141 -9 -11 -20 -37
-24 -59 -8 -43 -8 -192 0 -213 3 -9 157 -12 723 -12 798 0 745 -5 742 67 -4
81 -71 73 594 73 529 0 595 2 607 16 7 9 13 41 13 73 1 39 6 63 17 74 21 21
34 114 18 133 -10 12 -103 14 -580 14 -448 0 -569 3 -570 13 0 6 -2 28 -3 47
-5 75 -55 70 612 72 l597 3 5 62 c3 34 8 64 11 68 4 3 202 6 440 5 496 -1 479
-3 479 76 0 25 -5 54 -10 65 -10 19 -33 19 -1039 19 -876 0 -1030 2 -1040 14
-7 8 -11 37 -9 68 l3 53 599 3 c465 2 602 5 608 15 4 6 8 27 8 45 0 24 11 45
43 80 23 26 47 50 52 54 6 5 201 8 435 8 485 -1 456 -6 445 85 -3 27 -9 53
-14 58 -4 4 -467 8 -1027 7 -814 0 -1024 3 -1038 13 -13 10 -17 24 -14 67 l3
55 594 3 c419 1 598 5 608 13 8 7 13 33 13 70 0 49 3 59 18 59 9 0 221 0 471
0 326 0 457 3 467 11 18 14 19 120 2 137 -17 17 -2159 17 -2176 0z"/>
<path d="M14249 2747 c-112 -12 -118 -20 -88 -125 12 -42 23 -82 26 -89 4 -10
-36 -13 -199 -13 -145 0 -207 -3 -216 -12 -16 -16 -16 -190 0 -206 7 -7 42
-12 85 -12 40 0 73 -4 73 -8 0 -4 -24 -31 -53 -61 -78 -76 -75 -81 94 -181 76
-45 139 -86 139 -90 0 -11 -132 -68 -256 -109 -60 -21 -115 -41 -122 -45 -19
-12 -14 -32 30 -127 50 -105 62 -112 145 -80 l56 21 -6 -117 c-10 -211 -40
-294 -148 -408 -38 -40 -69 -81 -69 -92 0 -30 175 -157 198 -144 37 21 145
161 182 236 61 123 90 271 90 461 l0 92 -70 7 -71 7 59 28 c32 15 94 50 139
78 l82 50 128 -76 128 -77 -85 -3 c-46 -2 -90 -8 -97 -14 -18 -15 -19 -728 -1
-746 8 -8 47 -12 108 -12 81 0 100 3 113 18 15 17 17 57 17 365 0 191 3 347 8
347 4 0 24 -11 44 -25 l36 -25 66 93 c48 67 64 97 60 112 -8 24 19 5 -171 120
-90 53 -163 101 -163 105 0 3 29 51 65 105 36 53 77 119 91 146 l24 49 53 0
c29 0 58 5 65 12 16 16 16 190 0 206 -8 8 -65 12 -193 12 l-180 0 -23 87 c-13
47 -29 101 -37 120 -16 37 -12 37 -156 20z m180 -494 c-34 -57 -101 -144 -109
-141 -21 9 -300 171 -300 174 0 2 97 4 216 4 l216 0 -23 -37z"/>
<path d="M6741 2693 c-45 -206 -182 -542 -308 -756 l-29 -49 24 -136 c13 -75
29 -140 35 -144 28 -18 47 -4 96 70 l51 77 0 -436 c0 -410 1 -437 18 -452 15
-13 39 -17 113 -17 61 0 99 4 107 12 9 9 12 110 12 392 l1 381 37 -70 c47 -89
63 -93 119 -29 l43 49 0 -351 c0 -418 -11 -384 131 -384 61 0 99 4 107 12 7 7
12 31 12 55 l0 43 488 0 c366 0 491 3 500 12 16 16 16 160 0 176 -9 9 -73 12
-225 12 l-213 0 0 50 0 50 183 0 c221 0 217 -2 217 107 0 104 2 103 -218 103
l-182 0 0 50 0 50 188 0 c133 0 192 4 200 12 7 7 12 42 12 88 0 46 -5 81 -12
88 -8 8 -67 12 -200 12 l-188 0 0 55 0 55 208 0 c148 0 211 3 220 12 7 7 12
41 12 83 0 107 3 105 -222 105 l-184 0 -42 73 c-23 40 -42 76 -42 80 0 4 92 7
203 7 185 0 205 2 220 18 15 16 17 45 17 204 0 226 5 218 -127 218 -118 0
-123 -5 -123 -128 l0 -92 -120 0 -120 0 0 128 c0 86 -4 132 -12 140 -8 8 -48
12 -115 12 -91 0 -103 -2 -113 -19 -5 -11 -10 -74 -10 -140 l0 -121 -115 0
-115 0 0 93 c0 122 -5 127 -122 127 -122 0 -118 7 -118 -222 0 -216 0 -215 94
-220 l58 -3 -56 -110 c-64 -128 -131 -232 -213 -330 l-58 -70 -3 263 -2 264
54 141 c103 272 111 311 63 322 -54 13 -184 35 -203 35 -17 0 -23 -10 -33 -57z
m847 -460 c-31 -8 -32 -42 -3 -95 15 -27 25 -51 22 -54 -2 -3 -52 -3 -110 -2
l-105 3 24 58 c19 45 22 62 14 77 -10 19 -7 20 82 19 51 -1 85 -3 76 -6z m32
-408 l0 -55 -155 0 -155 0 0 55 0 55 155 0 155 0 0 -55z m0 -305 l0 -50 -155
0 -155 0 0 50 0 50 155 0 155 0 0 -50z m0 -310 l0 -50 -155 0 -155 0 0 50 0
50 155 0 155 0 0 -50z"/>
<path d="M10541 2728 c-148 -364 -271 -590 -441 -815 l-49 -64 15 -47 c8 -26
23 -81 35 -122 27 -97 35 -110 63 -110 17 0 40 24 97 102 l74 103 3 -444 c1
-308 6 -448 13 -458 15 -17 209 -19 227 -1 9 9 12 102 12 357 l0 346 24 -30
c14 -16 41 -58 61 -92 20 -33 45 -63 55 -66 11 -3 66 23 142 68 l123 73 5
-207 c5 -185 8 -211 29 -257 28 -63 70 -106 136 -136 47 -22 61 -23 275 -23
185 0 235 3 281 17 105 33 168 95 193 190 15 57 49 255 61 354 l7 52 -109 42
c-160 62 -153 68 -180 -155 -22 -176 -23 -181 -53 -208 -30 -27 -32 -27 -169
-27 -201 0 -185 -24 -188 292 l-3 253 67 50 c168 125 449 387 556 517 l39 47
-34 29 c-18 16 -60 52 -92 81 -33 28 -69 51 -80 51 -15 0 -43 -25 -86 -77 -73
-87 -243 -259 -319 -322 l-51 -43 0 329 c0 243 -3 332 -12 341 -8 8 -50 12
-123 12 -95 0 -114 -3 -128 -18 -15 -16 -17 -65 -19 -442 l-3 -424 -78 -48
c-43 -27 -134 -78 -202 -114 l-125 -66 0 281 0 281 60 120 c80 159 150 318
150 340 0 26 -15 34 -125 70 -55 18 -106 35 -112 37 -7 3 -17 -6 -22 -19z"/>
<path d="M15300 2721 c-7 -13 -10 -277 -10 -785 l0 -765 -22 -15 c-18 -13 -53
-16 -170 -16 -183 0 -177 7 -148 -151 11 -62 21 -113 22 -115 2 -1 91 1 198 6
208 7 238 14 296 63 18 15 42 48 55 74 l24 48 3 824 c2 609 0 827 -9 837 -8
10 -40 14 -120 14 -97 0 -109 -2 -119 -19z"/>
<path d="M14902 2518 c-17 -17 -17 -1159 0 -1176 16 -16 210 -16 226 0 9 9 12
152 12 583 0 541 -1 573 -18 588 -15 13 -39 17 -113 17 -61 0 -99 -4 -107 -12z"/>
<path d="M123 608 c-4 -7 -6 -49 -5 -94 3 -65 0 -84 -13 -98 -18 -18 -22 -37
-33 -159 -4 -49 -12 -81 -21 -86 -7 -5 -15 -19 -17 -32 -1 -13 -6 -38 -9 -55
-5 -21 -2 -34 8 -42 11 -9 191 -12 758 -10 l744 3 5 98 c3 55 10 101 16 105
18 11 26 67 31 215 3 99 1 142 -7 153 -11 12 -117 14 -731 14 -563 0 -720 -3
-726 -12z"/>
<path d="M6647 414 c-4 -4 -7 -20 -7 -36 0 -21 -5 -28 -20 -28 -26 0 -28 -45
-3 -59 17 -9 16 -13 -5 -57 -17 -33 -21 -55 -16 -77 l6 -31 19 23 19 23 0 -66
c0 -63 1 -66 24 -66 13 0 26 6 29 13 3 9 7 9 20 -2 14 -11 20 -11 34 0 26 22
53 90 53 137 0 38 2 42 25 42 24 0 25 -2 25 -71 0 -89 10 -109 55 -109 42 0
65 29 65 82 0 31 -4 38 -19 38 -14 0 -22 -11 -29 -37 -9 -33 -10 -26 -11 55
l-1 92 -80 0 c-79 0 -80 0 -80 -25 l0 -26 -30 23 c-16 12 -30 25 -30 29 0 14
48 23 155 28 105 6 110 7 113 29 3 20 -1 22 -43 22 -42 0 -47 2 -57 31 -8 25
-15 30 -32 25 -11 -3 -24 -6 -29 -6 -4 0 -5 -11 -1 -25 6 -23 3 -25 -27 -25
-19 0 -44 -3 -56 -6 -19 -5 -22 -1 -25 27 -3 32 -24 49 -41 33z m86 -281 c-28
-58 -43 -54 -43 12 0 51 2 56 19 50 11 -3 23 0 28 7 17 27 14 -33 -4 -69z"/>
<path d="M8232 388 c-11 -18 -34 -46 -51 -62 -26 -25 -28 -31 -19 -52 14 -29
20 -30 44 -3 17 19 19 19 31 3 20 -28 16 -34 -27 -34 -36 0 -40 -2 -40 -25 0
-24 3 -25 60 -25 l60 0 -16 -25 c-16 -25 -18 -25 -36 -8 -15 13 -23 15 -36 6
-26 -16 -21 -25 37 -77 49 -44 55 -46 70 -32 13 14 13 20 3 36 -11 18 -8 27
18 66 37 53 36 78 -3 82 -15 2 -25 7 -23 11 9 14 -38 68 -54 63 -11 -3 -11 0
3 14 18 19 19 18 55 -24 30 -34 39 -41 50 -31 10 10 12 -11 12 -109 l0 -122
25 0 c21 0 25 5 25 28 0 26 2 28 34 24 69 -8 99 66 55 137 -19 32 -19 36 -5
72 9 22 16 53 16 69 l0 30 -75 0 -75 0 0 -42 -1 -43 -28 31 c-16 18 -33 39
-37 47 -5 8 -19 17 -30 21 -18 5 -26 0 -42 -26z m218 -87 c-18 -48 -18 -50 -1
-73 37 -49 33 -88 -10 -88 -17 0 -19 9 -19 105 l0 105 25 0 25 0 -20 -49z"/>
<path d="M9095 410 c-3 -5 -3 -14 0 -20 4 -6 -22 -10 -69 -10 l-76 0 0 -45 c0
-41 2 -45 25 -45 14 0 25 -4 25 -10 0 -5 15 -10 33 -11 27 -1 23 -4 -30 -21
-66 -21 -69 -23 -53 -48 9 -14 26 -12 105 14 11 3 -2 -5 -30 -19 -27 -13 -58
-25 -67 -25 -21 0 -22 -4 -7 -31 12 -23 26 -20 104 17 43 21 47 22 25 4 -14
-11 -51 -30 -82 -41 -57 -21 -66 -31 -50 -57 7 -10 17 -9 51 3 53 18 48 19 54
-5 7 -27 66 -27 98 -1 20 16 24 29 24 69 0 35 3 45 9 34 14 -27 79 -92 92 -92
6 0 17 7 24 15 10 12 4 21 -29 53 -47 45 -51 64 -16 80 29 13 31 24 10 46 -21
20 -19 26 10 26 23 0 25 4 25 45 l0 45 -69 0 c-61 0 -70 3 -76 20 -7 21 -49
28 -60 10z m155 -87 c0 -5 -56 -8 -125 -8 -69 0 -125 3 -125 8 0 4 56 7 125 7
69 0 125 -3 125 -7z m-40 -73 c-42 -23 -66 -25 -73 -6 -7 19 7 24 63 25 l45 0
-35 -19z m-93 -145 c-4 -8 -17 -15 -29 -15 l-23 0 25 20 c27 20 36 19 27 -5z"/>
<path d="M10536 354 c-39 -70 -40 -104 -4 -104 20 0 19 -1 -5 -33 -29 -38 -21
-67 17 -67 45 0 86 13 86 26 0 8 5 14 10 14 6 0 10 -32 10 -75 0 -73 1 -75 25
-75 14 0 25 5 25 10 0 6 23 10 50 10 28 0 50 -4 50 -10 0 -5 11 -10 25 -10 24
0 25 2 25 70 0 48 5 79 16 95 17 27 12 45 -14 45 -9 0 -23 4 -31 9 -12 8 -9
15 12 41 15 17 27 42 27 56 0 22 -4 24 -54 24 -45 0 -54 3 -59 20 -9 34 -40
22 -69 -26 -24 -38 -31 -44 -52 -38 -19 4 -26 1 -31 -15 -3 -12 -11 -21 -16
-21 -14 0 -11 7 17 56 29 49 29 49 -2 58 -19 6 -27 -3 -58 -60z m244 -39 c-7
-8 -18 -15 -25 -15 -7 0 -18 7 -25 15 -11 13 -7 15 25 15 32 0 36 -2 25 -15z
m-114 -34 c14 11 34 4 34 -11 0 -5 -18 -15 -40 -21 -22 -7 -40 -18 -40 -25 0
-11 -29 -28 -36 -21 -2 1 9 21 24 44 17 26 30 39 36 33 6 -6 14 -5 22 1z m129
-66 c29 -13 27 -13 -40 -14 -67 0 -69 0 -40 14 38 17 44 17 80 0z m5 -85 c0
-17 -7 -20 -50 -20 -43 0 -50 3 -50 20 0 17 7 20 50 20 43 0 50 -3 50 -20z"/>
<path d="M11557 414 c-4 -4 -7 -22 -7 -41 0 -39 -6 -41 -37 -11 -19 18 -28 20
-41 12 -24 -16 -21 -27 16 -59 26 -22 35 -25 47 -15 13 11 15 4 15 -48 0 -59
0 -60 -31 -66 -45 -9 -81 -7 -75 3 4 5 -7 21 -24 34 -16 14 -30 28 -30 31 0
16 40 3 70 -24 40 -34 55 -37 65 -13 9 26 -51 79 -71 62 -11 -9 -14 -7 -14 10
0 16 -6 21 -25 21 -18 0 -25 5 -25 20 0 15 7 20 25 20 20 0 25 5 25 25 0 23
-4 25 -44 25 -78 0 -106 -10 -106 -36 0 -19 5 -24 25 -24 35 0 33 -28 -2 -32
-36 -4 -40 -41 -5 -46 28 -4 27 -7 -3 -60 -17 -29 -23 -52 -19 -68 8 -30 17
-30 37 -2 15 22 16 21 16 -34 1 -55 2 -58 26 -58 24 0 25 2 25 71 0 70 11 84
30 35 7 -21 13 -22 68 -18 l61 4 3 -43 c3 -40 6 -44 31 -47 26 -3 27 -2 27 47
0 44 3 50 23 53 32 4 32 54 0 51 -22 -3 -22 0 -25 110 -3 104 -4 112 -23 115
-12 2 -24 0 -28 -4z"/>
<path d="M12117 414 c-4 -4 -7 -20 -7 -35 0 -21 -5 -28 -22 -31 -15 -2 -23
-10 -23 -23 0 -13 8 -21 23 -23 17 -3 22 -10 22 -33 0 -22 -5 -30 -26 -35 -20
-5 -24 -12 -22 -33 2 -21 8 -25 26 -23 20 3 22 -1 22 -37 0 -34 -3 -41 -20
-41 -16 0 -20 -7 -20 -31 0 -31 1 -31 37 -26 47 8 53 19 53 95 0 54 2 62 19
62 11 0 21 6 23 13 2 7 18 -9 35 -36 l33 -49 -50 -21 c-55 -23 -56 -25 -37
-52 13 -17 16 -17 71 8 l56 26 52 -24 c48 -22 52 -23 64 -7 20 26 17 31 -26
48 -22 9 -40 18 -40 19 0 2 14 26 31 53 41 66 37 96 -13 100 -57 5 -50 30 10
34 39 3 47 6 47 23 0 17 -8 20 -47 23 -42 3 -47 6 -50 30 -2 21 -8 27 -28 27
-20 0 -26 -6 -28 -27 -3 -23 -8 -28 -31 -28 -16 0 -42 -3 -59 -6 -29 -6 -31
-4 -34 27 -3 32 -24 49 -41 33z m163 -119 c0 -11 -11 -15 -35 -15 -20 0 -38
-6 -41 -13 -2 -7 -13 -13 -24 -14 -30 -3 -28 44 3 50 54 10 97 7 97 -8z m70
-76 c0 -6 -9 -22 -19 -35 l-19 -25 -21 30 c-12 16 -21 32 -21 35 0 3 18 6 40
6 22 0 40 -5 40 -11z"/>
<path d="M12981 401 c-9 -16 -23 -21 -69 -23 -53 -3 -57 -5 -57 -28 0 -22 5
-25 38 -28 20 -2 37 -7 37 -11 0 -4 -21 -29 -46 -54 -39 -40 -44 -49 -34 -67
13 -24 18 -25 42 -3 17 15 18 13 18 -66 l0 -82 28 3 c23 3 27 8 30 40 l3 38
75 0 c59 0 74 -3 74 -15 0 -11 -11 -15 -36 -15 -31 0 -35 -3 -32 -22 3 -21 8
-23 51 -21 74 2 77 8 77 139 l0 114 -90 0 c-128 0 -113 19 18 22 107 3 107 3
107 28 0 24 -2 25 -90 30 -71 4 -90 8 -90 20 0 24 -42 24 -54 1z m107 -158
c-21 -2 -57 -2 -80 0 -24 2 -7 4 37 4 44 0 63 -2 43 -4z m32 -63 c0 -6 -32
-10 -75 -10 -43 0 -75 4 -75 10 0 6 32 10 75 10 43 0 75 -4 75 -10z"/>
<path d="M7447 403 c-4 -3 -7 -26 -7 -50 0 -38 -2 -44 -18 -39 -16 5 -21 -3
-35 -51 -8 -32 -15 -58 -14 -59 1 -1 12 -4 23 -8 19 -6 23 -1 32 31 l10 38 1
-46 c1 -30 -8 -62 -26 -98 -25 -52 -25 -54 -8 -67 15 -11 21 -11 33 -1 23 19
50 86 58 147 6 43 9 49 14 30 4 -16 14 -26 28 -28 20 -3 22 -9 22 -78 0 -72 1
-74 25 -74 l25 0 1 113 c1 97 3 107 12 75 7 -26 16 -38 28 -38 16 0 19 -11 21
-77 3 -76 4 -78 28 -78 l25 0 0 180 0 180 -25 0 c-24 0 -25 -3 -30 -75 -4 -60
-7 -69 -13 -46 -6 21 -13 27 -27 23 -17 -4 -19 2 -22 47 -3 43 -6 51 -23 51
-18 0 -21 -8 -25 -80 -5 -76 -6 -78 -17 -47 -7 17 -19 32 -27 32 -12 0 -16 11
-16 50 0 46 -2 50 -23 50 -13 0 -27 -3 -30 -7z"/>
<path d="M14627 399 c-16 -10 -16 -13 10 -60 14 -27 47 -68 71 -91 l45 -41 18
24 c18 24 18 24 -21 57 -22 19 -52 54 -66 78 -28 47 -30 49 -57 33z"/>
<path d="M9740 220 l0 -181 23 3 c17 2 23 11 25 36 2 24 7 32 18 28 9 -3 20 6
30 25 13 26 17 29 27 16 7 -8 24 -22 39 -32 27 -17 28 -17 39 9 15 31 25 33
34 6 5 -15 12 -19 26 -15 11 4 19 2 19 -4 0 -6 -16 -11 -36 -11 -33 0 -35 -2
-32 -27 3 -26 6 -28 46 -27 73 1 77 11 77 192 l0 157 -167 3 -168 2 0 -180z
m280 116 c0 -9 -7 -12 -18 -9 -13 3 -22 -4 -31 -24 l-13 -28 -13 24 c-19 37
-60 39 -79 4 l-14 -28 -13 28 c-9 20 -18 27 -31 24 -11 -3 -18 0 -18 9 0 11
23 14 115 14 92 0 115 -3 115 -14z m-213 -148 l-16 -33 0 65 0 65 16 -32 c15
-30 15 -36 0 -65z m211 10 l-3 -32 -14 27 c-12 22 -12 31 0 59 l14 33 3 -27
c2 -15 2 -42 0 -60z m-99 -5 l-13 -24 -13 25 c-10 20 -11 30 -1 51 l12 26 14
-27 c12 -22 12 -31 1 -51z"/>
<path d="M13640 220 l0 -180 25 0 c21 0 25 5 25 30 0 25 4 30 24 30 14 0 32 7
40 16 20 20 20 80 1 118 -13 25 -13 34 0 79 25 85 24 87 -50 87 l-65 0 0 -180z
m68 93 c-14 -52 -18 -53 -18 -5 0 30 4 42 14 42 12 0 12 -7 4 -37z m12 -135
c0 -18 -5 -28 -15 -28 -11 0 -15 12 -15 48 1 43 2 46 15 28 8 -11 15 -32 15
-48z"/>
<path d="M13778 233 c-3 -113 0 -172 7 -181 9 -10 21 -8 58 8 26 12 47 25 47
31 0 5 17 -2 37 -16 21 -14 43 -25 50 -25 11 0 30 38 21 44 -1 1 -16 10 -32
20 l-28 18 32 19 c30 19 31 21 16 38 -12 14 -16 39 -16 114 l0 97 -94 0 -94 0
-4 -167z m142 102 c0 -11 -12 -15 -45 -15 -33 0 -45 4 -45 15 0 11 12 15 45
15 33 0 45 -4 45 -15z m0 -70 c0 -11 -12 -15 -45 -15 -33 0 -45 4 -45 15 0 11
12 15 45 15 33 0 45 -4 45 -15z m-62 -107 c10 -24 9 -29 -8 -38 -19 -10 -20
-7 -20 37 0 48 7 49 28 1z m77 28 c-20 -14 -35 -12 -35 5 0 5 12 9 27 9 26 0
26 -1 8 -14z"/>
<path d="M14512 375 c-7 -14 -32 -47 -57 -74 -49 -53 -53 -62 -30 -81 14 -11
23 -7 61 31 61 59 101 128 83 140 -25 16 -46 10 -57 -16z"/>
<path d="M15210 375 l0 -25 140 0 140 0 0 -125 0 -125 -46 0 c-38 0 -45 -3
-40 -16 3 -9 6 -23 6 -31 0 -13 10 -15 55 -11 31 3 61 10 68 17 8 8 13 65 15
176 l3 165 -170 0 -171 0 0 -25z"/>
<path d="M15194 315 c-4 -8 -4 -22 0 -30 5 -13 27 -15 143 -13 l138 3 0 25 0
25 -138 3 c-116 2 -138 0 -143 -13z"/>
<path d="M14537 227 c-19 -29 -49 -70 -66 -90 -24 -27 -31 -42 -26 -58 7 -21
10 -21 130 -14 110 6 124 5 133 -10 7 -14 13 -15 31 -6 11 7 21 16 21 22 0 10
-99 139 -107 139 -2 0 -13 -5 -24 -11 -19 -10 -19 -10 1 -39 11 -15 20 -31 20
-34 0 -3 -27 -6 -61 -6 l-60 0 47 65 c25 36 45 67 43 69 -2 2 -14 8 -26 15
-20 10 -25 7 -56 -42z"/>
<path d="M15224 237 c-3 -8 -4 -45 -2 -83 3 -63 5 -69 26 -72 13 -2 25 3 28
12 5 13 23 16 85 16 l79 0 0 70 0 70 -105 0 c-79 0 -107 -3 -111 -13z m156
-57 c0 -17 -7 -20 -50 -20 -43 0 -50 3 -50 20 0 17 7 20 50 20 43 0 50 -3 50
-20z"/>
<path d="M10545 121 c-34 -5 -40 -10 -40 -31 0 -27 2 -27 88 -15 41 5 47 9 47
31 0 26 -11 28 -95 15z"/>
</g>
</svg>
